<svg width="1467" height="758" viewBox="0 0 1467 758" fill="none" xmlns="http://www.w3.org/2000/svg">
<rect x="2" y="301" width="396" height="196" rx="30" fill="#D9D9D9" stroke="#3B9B0E" stroke-width="4"/>
<path d="M144.944 410V386.64H150.992C152.485 386.64 153.787 386.928 154.896 387.504C156.005 388.08 156.859 388.901 157.456 389.968C158.075 391.013 158.384 392.24 158.384 393.648V402.96C158.384 405.115 157.712 406.832 156.368 408.112C155.045 409.371 153.253 410 150.992 410H144.944ZM150.992 407.44C152.4 407.44 153.499 407.045 154.288 406.256C155.099 405.467 155.504 404.368 155.504 402.96V393.648C155.504 392.261 155.099 391.173 154.288 390.384C153.499 389.595 152.4 389.2 150.992 389.2H147.824V407.44H150.992ZM177.572 401.904H166.82V403.6C166.82 405.008 167.15 406.075 167.812 406.8C168.494 407.525 169.486 407.888 170.788 407.888C173.028 407.888 174.308 407.099 174.628 405.52H177.508C177.316 406.992 176.612 408.165 175.396 409.04C174.18 409.893 172.644 410.32 170.788 410.32C168.718 410.32 167.065 409.712 165.828 408.496C164.612 407.28 164.004 405.648 164.004 403.6V398.8C164.004 396.752 164.612 395.12 165.828 393.904C167.065 392.688 168.718 392.08 170.788 392.08C172.857 392.08 174.5 392.688 175.716 393.904C176.953 395.12 177.572 396.752 177.572 398.8V401.904ZM166.82 399.728H174.756V398.8C174.756 397.392 174.414 396.325 173.732 395.6C173.07 394.853 172.089 394.48 170.788 394.48C169.486 394.48 168.494 394.853 167.812 395.6C167.15 396.325 166.82 397.392 166.82 398.8V399.728ZM188.023 410L182.295 392.4H185.239L188.983 404.24C189.367 405.456 189.719 406.64 190.039 407.792C190.359 406.64 190.711 405.456 191.095 404.24L194.743 392.4H197.655L191.927 410H188.023ZM209.163 389.36C208.523 389.36 208.011 389.189 207.627 388.848C207.264 388.507 207.083 388.048 207.083 387.472C207.083 386.896 207.275 386.427 207.659 386.064C208.043 385.701 208.544 385.52 209.163 385.52H209.803C210.421 385.52 210.923 385.701 211.307 386.064C211.691 386.427 211.883 386.896 211.883 387.472C211.883 388.048 211.691 388.507 211.307 388.848C210.923 389.189 210.421 389.36 209.803 389.36H209.163ZM217.163 410H202.123V407.376H208.363V395.024H202.923V392.4H211.243V407.376H217.163V410ZM228.478 410.32C226.345 410.32 224.659 409.723 223.422 408.528C222.185 407.333 221.566 405.691 221.566 403.6V398.8C221.566 396.709 222.185 395.067 223.422 393.872C224.659 392.677 226.345 392.08 228.478 392.08C230.505 392.08 232.137 392.624 233.374 393.712C234.611 394.8 235.262 396.283 235.326 398.16H232.446C232.382 397.051 231.998 396.187 231.294 395.568C230.611 394.949 229.673 394.64 228.478 394.64C227.219 394.64 226.227 395.003 225.502 395.728C224.798 396.453 224.446 397.467 224.446 398.768V403.6C224.446 404.923 224.798 405.947 225.502 406.672C226.206 407.397 227.198 407.76 228.478 407.76C229.673 407.76 230.611 407.451 231.294 406.832C231.998 406.213 232.382 405.349 232.446 404.24H235.326C235.262 406.117 234.611 407.6 233.374 408.688C232.137 409.776 230.505 410.32 228.478 410.32ZM254.322 401.904H243.57V403.6C243.57 405.008 243.9 406.075 244.562 406.8C245.244 407.525 246.236 407.888 247.538 407.888C249.778 407.888 251.058 407.099 251.378 405.52H254.258C254.066 406.992 253.362 408.165 252.146 409.04C250.93 409.893 249.394 410.32 247.538 410.32C245.468 410.32 243.815 409.712 242.578 408.496C241.362 407.28 240.754 405.648 240.754 403.6V398.8C240.754 396.752 241.362 395.12 242.578 393.904C243.815 392.688 245.468 392.08 247.538 392.08C249.607 392.08 251.25 392.688 252.466 393.904C253.703 395.12 254.322 396.752 254.322 398.8V401.904ZM243.57 399.728H251.506V398.8C251.506 397.392 251.164 396.325 250.482 395.6C249.82 394.853 248.839 394.48 247.538 394.48C246.236 394.48 245.244 394.853 244.562 395.6C243.9 396.325 243.57 397.392 243.57 398.8V399.728Z" fill="black"/>
<rect x="526" y="301" width="396" height="196" rx="30" fill="#D9D9D9" stroke="#3B9B0E" stroke-width="4"/>
<path d="M612.728 410.32C610.595 410.32 608.909 409.723 607.672 408.528C606.435 407.333 605.816 405.691 605.816 403.6V393.04C605.816 390.949 606.435 389.307 607.672 388.112C608.909 386.917 610.595 386.32 612.728 386.32C614.819 386.32 616.483 386.928 617.72 388.144C618.957 389.339 619.576 390.971 619.576 393.04H616.696C616.696 391.717 616.344 390.693 615.64 389.968C614.957 389.243 613.987 388.88 612.728 388.88C611.469 388.88 610.477 389.243 609.752 389.968C609.048 390.693 608.696 391.707 608.696 393.008V403.6C608.696 404.923 609.048 405.947 609.752 406.672C610.456 407.397 611.448 407.76 612.728 407.76C613.987 407.76 614.957 407.397 615.64 406.672C616.344 405.947 616.696 404.923 616.696 403.6H619.576C619.576 405.669 618.957 407.312 617.72 408.528C616.483 409.723 614.819 410.32 612.728 410.32ZM631.788 410.32C629.697 410.32 628.044 409.723 626.828 408.528C625.612 407.333 625.004 405.691 625.004 403.6V398.8C625.004 396.709 625.612 395.067 626.828 393.872C628.044 392.677 629.697 392.08 631.788 392.08C633.878 392.08 635.532 392.677 636.748 393.872C637.964 395.067 638.572 396.699 638.572 398.768V403.6C638.572 405.691 637.964 407.333 636.748 408.528C635.532 409.723 633.878 410.32 631.788 410.32ZM631.788 407.76C633.046 407.76 634.006 407.408 634.668 406.704C635.35 405.979 635.692 404.944 635.692 403.6V398.8C635.692 397.456 635.35 396.432 634.668 395.728C634.006 395.003 633.046 394.64 631.788 394.64C630.529 394.64 629.558 395.003 628.876 395.728C628.214 396.432 627.884 397.456 627.884 398.8V403.6C627.884 404.944 628.214 405.979 628.876 406.704C629.558 407.408 630.529 407.76 631.788 407.76ZM654.975 392.08C656.063 392.08 656.916 392.496 657.535 393.328C658.154 394.139 658.463 395.237 658.463 396.624V410H655.807V396.592C655.807 395.867 655.647 395.301 655.327 394.896C655.028 394.491 654.58 394.288 653.983 394.288C653.407 394.288 652.948 394.491 652.607 394.896C652.287 395.28 652.127 395.835 652.127 396.56V410H649.823V396.592C649.823 395.867 649.652 395.301 649.311 394.896C648.991 394.491 648.532 394.288 647.935 394.288C647.359 394.288 646.911 394.491 646.591 394.896C646.292 395.28 646.143 395.835 646.143 396.56V410H643.487V392.4H646.015V394.512H646.207C646.335 393.765 646.644 393.179 647.135 392.752C647.647 392.304 648.287 392.08 649.055 392.08C649.78 392.08 650.388 392.293 650.879 392.72C651.37 393.125 651.722 393.723 651.935 394.512H652.063C652.212 393.765 652.543 393.179 653.055 392.752C653.567 392.304 654.207 392.08 654.975 392.08ZM674.163 392.08C675.251 392.08 676.104 392.496 676.722 393.328C677.341 394.139 677.651 395.237 677.651 396.624V410H674.995V396.592C674.995 395.867 674.835 395.301 674.515 394.896C674.216 394.491 673.768 394.288 673.171 394.288C672.595 394.288 672.136 394.491 671.795 394.896C671.475 395.28 671.315 395.835 671.315 396.56V410H669.01V396.592C669.01 395.867 668.84 395.301 668.499 394.896C668.179 394.491 667.72 394.288 667.123 394.288C666.547 394.288 666.099 394.491 665.779 394.896C665.48 395.28 665.331 395.835 665.331 396.56V410H662.674V392.4H665.203V394.512H665.395C665.523 393.765 665.832 393.179 666.323 392.752C666.835 392.304 667.475 392.08 668.243 392.08C668.968 392.08 669.576 392.293 670.067 392.72C670.557 393.125 670.909 393.723 671.123 394.512H671.251C671.4 393.765 671.731 393.179 672.243 392.752C672.755 392.304 673.395 392.08 674.163 392.08ZM689.414 392.112C691.462 392.112 693.083 392.635 694.278 393.68C695.473 394.704 696.07 396.112 696.07 397.904V410H693.254V406.64H693.222C693.137 407.749 692.582 408.645 691.558 409.328C690.534 409.989 689.254 410.32 687.718 410.32C685.926 410.32 684.497 409.851 683.43 408.912C682.363 407.973 681.83 406.704 681.83 405.104C681.83 403.419 682.353 402.096 683.398 401.136C684.465 400.176 685.915 399.696 687.75 399.696H693.19V398C693.19 396.933 692.849 396.112 692.166 395.536C691.505 394.939 690.577 394.64 689.382 394.64C688.337 394.64 687.473 394.853 686.79 395.28C686.107 395.707 685.713 396.293 685.606 397.04H682.726C682.918 395.547 683.622 394.352 684.838 393.456C686.054 392.56 687.579 392.112 689.414 392.112ZM688.39 408.048C689.798 408.048 690.95 407.717 691.846 407.056C692.742 406.373 693.19 405.488 693.19 404.4V401.904H687.814C686.854 401.904 686.097 402.171 685.542 402.704C684.987 403.237 684.71 403.973 684.71 404.912C684.71 405.893 685.041 406.661 685.702 407.216C686.363 407.771 687.259 408.048 688.39 408.048ZM709.466 392.08C711.236 392.08 712.644 392.635 713.69 393.744C714.735 394.832 715.258 396.304 715.258 398.16V410H712.378V398.48C712.378 397.243 712.036 396.272 711.354 395.568C710.692 394.864 709.786 394.512 708.634 394.512C707.418 394.512 706.468 394.896 705.786 395.664C705.103 396.411 704.762 397.456 704.762 398.8V410H701.882V392.4H704.762V395.76H704.794C704.943 394.587 705.423 393.68 706.234 393.04C707.044 392.4 708.122 392.08 709.466 392.08ZM731.501 386.64H734.381V410H731.501V406.64H731.469C731.32 407.792 730.818 408.699 729.965 409.36C729.112 410 728.024 410.32 726.701 410.32C724.93 410.32 723.522 409.733 722.477 408.56C721.453 407.387 720.941 405.797 720.941 403.792V398.64C720.941 396.613 721.453 395.013 722.477 393.84C723.522 392.667 724.93 392.08 726.701 392.08C728.002 392.08 729.08 392.411 729.933 393.072C730.786 393.733 731.298 394.629 731.469 395.76H731.565L731.501 391.76V386.64ZM731.501 398.8C731.501 397.477 731.16 396.443 730.477 395.696C729.794 394.949 728.856 394.576 727.661 394.576C726.445 394.576 725.496 394.949 724.813 395.696C724.152 396.421 723.821 397.456 723.821 398.8V403.6C723.821 404.944 724.152 405.989 724.813 406.736C725.496 407.461 726.445 407.824 727.661 407.824C728.856 407.824 729.794 407.451 730.477 406.704C731.16 405.957 731.501 404.923 731.501 403.6V398.8ZM769.876 392.4H772.756V415.76H769.876V410.64L769.94 406.64H769.844C769.673 407.771 769.161 408.667 768.308 409.328C767.455 409.989 766.377 410.32 765.076 410.32C763.305 410.32 761.897 409.733 760.852 408.56C759.828 407.387 759.316 405.787 759.316 403.76V398.608C759.316 396.603 759.828 395.013 760.852 393.84C761.897 392.667 763.305 392.08 765.076 392.08C766.399 392.08 767.487 392.411 768.34 393.072C769.193 393.712 769.695 394.608 769.844 395.76H769.876V392.4ZM769.876 398.8C769.876 397.477 769.535 396.443 768.852 395.696C768.169 394.949 767.231 394.576 766.036 394.576C764.82 394.576 763.871 394.949 763.188 395.696C762.527 396.421 762.196 397.456 762.196 398.8V403.6C762.196 404.944 762.527 405.989 763.188 406.736C763.871 407.461 764.82 407.824 766.036 407.824C767.231 407.824 768.169 407.451 768.852 406.704C769.535 405.957 769.876 404.923 769.876 403.6V398.8ZM785.256 410.32C783.229 410.32 781.608 409.712 780.391 408.496C779.176 407.28 778.568 405.648 778.568 403.6V392.4H781.448V403.6C781.448 404.923 781.778 405.957 782.44 406.704C783.122 407.429 784.061 407.792 785.256 407.792C786.472 407.792 787.421 407.429 788.104 406.704C788.786 405.957 789.128 404.923 789.128 403.6V392.4H792.008V403.6C792.008 405.648 791.389 407.28 790.152 408.496C788.936 409.712 787.304 410.32 785.256 410.32ZM811.259 401.904H800.507V403.6C800.507 405.008 800.838 406.075 801.499 406.8C802.182 407.525 803.174 407.888 804.475 407.888C806.715 407.888 807.995 407.099 808.315 405.52H811.195C811.003 406.992 810.299 408.165 809.083 409.04C807.867 409.893 806.331 410.32 804.475 410.32C802.406 410.32 800.752 409.712 799.515 408.496C798.299 407.28 797.691 405.648 797.691 403.6V398.8C797.691 396.752 798.299 395.12 799.515 393.904C800.752 392.688 802.406 392.08 804.475 392.08C806.544 392.08 808.187 392.688 809.403 393.904C810.64 395.12 811.259 396.752 811.259 398.8V401.904ZM800.507 399.728H808.443V398.8C808.443 397.392 808.102 396.325 807.419 395.6C806.758 394.853 805.776 394.48 804.475 394.48C803.174 394.48 802.182 394.853 801.499 395.6C800.838 396.325 800.507 397.392 800.507 398.8V399.728ZM823.631 410.32C821.604 410.32 819.983 409.712 818.766 408.496C817.551 407.28 816.943 405.648 816.943 403.6V392.4H819.823V403.6C819.823 404.923 820.153 405.957 820.815 406.704C821.497 407.429 822.436 407.792 823.631 407.792C824.847 407.792 825.796 407.429 826.479 406.704C827.161 405.957 827.503 404.923 827.503 403.6V392.4H830.383V403.6C830.383 405.648 829.764 407.28 828.527 408.496C827.311 409.712 825.679 410.32 823.631 410.32ZM849.634 401.904H838.882V403.6C838.882 405.008 839.213 406.075 839.874 406.8C840.557 407.525 841.549 407.888 842.85 407.888C845.09 407.888 846.37 407.099 846.69 405.52H849.57C849.378 406.992 848.674 408.165 847.458 409.04C846.242 409.893 844.706 410.32 842.85 410.32C840.781 410.32 839.127 409.712 837.89 408.496C836.674 407.28 836.066 405.648 836.066 403.6V398.8C836.066 396.752 836.674 395.12 837.89 393.904C839.127 392.688 840.781 392.08 842.85 392.08C844.919 392.08 846.562 392.688 847.778 393.904C849.015 395.12 849.634 396.752 849.634 398.8V401.904ZM838.882 399.728H846.818V398.8C846.818 397.392 846.477 396.325 845.794 395.6C845.133 394.853 844.151 394.48 842.85 394.48C841.549 394.48 840.557 394.853 839.874 395.6C839.213 396.325 838.882 397.392 838.882 398.8V399.728Z" fill="black"/>
<rect x="1069" y="2" width="396" height="196" rx="30" fill="#D9D9D9" stroke="#3B9B0E" stroke-width="4"/>
<path d="M1144.73 111.32C1142.59 111.32 1140.91 110.723 1139.67 109.528C1138.43 108.333 1137.82 106.691 1137.82 104.6V94.04C1137.82 91.9493 1138.43 90.3067 1139.67 89.112C1140.91 87.9173 1142.59 87.32 1144.73 87.32C1146.82 87.32 1148.48 87.928 1149.72 89.144C1150.96 90.3387 1151.58 91.9707 1151.58 94.04H1148.7C1148.7 92.7173 1148.34 91.6933 1147.64 90.968C1146.96 90.2427 1145.99 89.88 1144.73 89.88C1143.47 89.88 1142.48 90.2427 1141.75 90.968C1141.05 91.6933 1140.7 92.7067 1140.7 94.008V104.6C1140.7 105.923 1141.05 106.947 1141.75 107.672C1142.46 108.397 1143.45 108.76 1144.73 108.76C1145.99 108.76 1146.96 108.397 1147.64 107.672C1148.34 106.947 1148.7 105.923 1148.7 104.6H1151.58C1151.58 106.669 1150.96 108.312 1149.72 109.528C1148.48 110.723 1146.82 111.32 1144.73 111.32ZM1163.79 111.32C1161.7 111.32 1160.04 110.723 1158.83 109.528C1157.61 108.333 1157 106.691 1157 104.6V99.8C1157 97.7093 1157.61 96.0667 1158.83 94.872C1160.04 93.6773 1161.7 93.08 1163.79 93.08C1165.88 93.08 1167.53 93.6773 1168.75 94.872C1169.96 96.0667 1170.57 97.6987 1170.57 99.768V104.6C1170.57 106.691 1169.96 108.333 1168.75 109.528C1167.53 110.723 1165.88 111.32 1163.79 111.32ZM1163.79 108.76C1165.05 108.76 1166.01 108.408 1166.67 107.704C1167.35 106.979 1167.69 105.944 1167.69 104.6V99.8C1167.69 98.456 1167.35 97.432 1166.67 96.728C1166.01 96.0027 1165.05 95.64 1163.79 95.64C1162.53 95.64 1161.56 96.0027 1160.88 96.728C1160.21 97.432 1159.88 98.456 1159.88 99.8V104.6C1159.88 105.944 1160.21 106.979 1160.88 107.704C1161.56 108.408 1162.53 108.76 1163.79 108.76ZM1186.98 93.08C1188.06 93.08 1188.92 93.496 1189.53 94.328C1190.15 95.1387 1190.46 96.2373 1190.46 97.624V111H1187.81V97.592C1187.81 96.8667 1187.65 96.3013 1187.33 95.896C1187.03 95.4907 1186.58 95.288 1185.98 95.288C1185.41 95.288 1184.95 95.4907 1184.61 95.896C1184.29 96.28 1184.13 96.8347 1184.13 97.56V111H1181.82V97.592C1181.82 96.8667 1181.65 96.3013 1181.31 95.896C1180.99 95.4907 1180.53 95.288 1179.94 95.288C1179.36 95.288 1178.91 95.4907 1178.59 95.896C1178.29 96.28 1178.14 96.8347 1178.14 97.56V111H1175.49V93.4H1178.02V95.512H1178.21C1178.34 94.7653 1178.64 94.1787 1179.14 93.752C1179.65 93.304 1180.29 93.08 1181.06 93.08C1181.78 93.08 1182.39 93.2933 1182.88 93.72C1183.37 94.1253 1183.72 94.7227 1183.94 95.512H1184.06C1184.21 94.7653 1184.54 94.1787 1185.06 93.752C1185.57 93.304 1186.21 93.08 1186.98 93.08ZM1206.16 93.08C1207.25 93.08 1208.1 93.496 1208.72 94.328C1209.34 95.1387 1209.65 96.2373 1209.65 97.624V111H1206.99V97.592C1206.99 96.8667 1206.83 96.3013 1206.51 95.896C1206.22 95.4907 1205.77 95.288 1205.17 95.288C1204.59 95.288 1204.14 95.4907 1203.79 95.896C1203.47 96.28 1203.31 96.8347 1203.31 97.56V111H1201.01V97.592C1201.01 96.8667 1200.84 96.3013 1200.5 95.896C1200.18 95.4907 1199.72 95.288 1199.12 95.288C1198.55 95.288 1198.1 95.4907 1197.78 95.896C1197.48 96.28 1197.33 96.8347 1197.33 97.56V111H1194.67V93.4H1197.2V95.512H1197.39C1197.52 94.7653 1197.83 94.1787 1198.32 93.752C1198.83 93.304 1199.47 93.08 1200.24 93.08C1200.97 93.08 1201.58 93.2933 1202.07 93.72C1202.56 94.1253 1202.91 94.7227 1203.12 95.512H1203.25C1203.4 94.7653 1203.73 94.1787 1204.24 93.752C1204.75 93.304 1205.39 93.08 1206.16 93.08ZM1221.41 93.112C1223.46 93.112 1225.08 93.6347 1226.28 94.68C1227.47 95.704 1228.07 97.112 1228.07 98.904V111H1225.25V107.64H1225.22C1225.14 108.749 1224.58 109.645 1223.56 110.328C1222.53 110.989 1221.25 111.32 1219.72 111.32C1217.93 111.32 1216.5 110.851 1215.43 109.912C1214.36 108.973 1213.83 107.704 1213.83 106.104C1213.83 104.419 1214.35 103.096 1215.4 102.136C1216.46 101.176 1217.92 100.696 1219.75 100.696H1225.19V99C1225.19 97.9333 1224.85 97.112 1224.17 96.536C1223.5 95.9387 1222.58 95.64 1221.38 95.64C1220.34 95.64 1219.47 95.8533 1218.79 96.28C1218.11 96.7067 1217.71 97.2933 1217.61 98.04H1214.73C1214.92 96.5467 1215.62 95.352 1216.84 94.456C1218.05 93.56 1219.58 93.112 1221.41 93.112ZM1220.39 109.048C1221.8 109.048 1222.95 108.717 1223.85 108.056C1224.74 107.373 1225.19 106.488 1225.19 105.4V102.904H1219.81C1218.85 102.904 1218.1 103.171 1217.54 103.704C1216.99 104.237 1216.71 104.973 1216.71 105.912C1216.71 106.893 1217.04 107.661 1217.7 108.216C1218.36 108.771 1219.26 109.048 1220.39 109.048ZM1241.47 93.08C1243.24 93.08 1244.64 93.6347 1245.69 94.744C1246.73 95.832 1247.26 97.304 1247.26 99.16V111H1244.38V99.48C1244.38 98.2427 1244.04 97.272 1243.35 96.568C1242.69 95.864 1241.79 95.512 1240.63 95.512C1239.42 95.512 1238.47 95.896 1237.79 96.664C1237.1 97.4107 1236.76 98.456 1236.76 99.8V111H1233.88V93.4H1236.76V96.76H1236.79C1236.94 95.5867 1237.42 94.68 1238.23 94.04C1239.04 93.4 1240.12 93.08 1241.47 93.08ZM1263.5 87.64H1266.38V111H1263.5V107.64H1263.47C1263.32 108.792 1262.82 109.699 1261.97 110.36C1261.11 111 1260.02 111.32 1258.7 111.32C1256.93 111.32 1255.52 110.733 1254.48 109.56C1253.45 108.387 1252.94 106.797 1252.94 104.792V99.64C1252.94 97.6133 1253.45 96.0133 1254.48 94.84C1255.52 93.6667 1256.93 93.08 1258.7 93.08C1260 93.08 1261.08 93.4107 1261.93 94.072C1262.79 94.7333 1263.3 95.6293 1263.47 96.76H1263.57L1263.5 92.76V87.64ZM1263.5 99.8C1263.5 98.4773 1263.16 97.4427 1262.48 96.696C1261.79 95.9493 1260.86 95.576 1259.66 95.576C1258.45 95.576 1257.5 95.9493 1256.81 96.696C1256.15 97.4213 1255.82 98.456 1255.82 99.8V104.6C1255.82 105.944 1256.15 106.989 1256.81 107.736C1257.5 108.461 1258.45 108.824 1259.66 108.824C1260.86 108.824 1261.79 108.451 1262.48 107.704C1263.16 106.957 1263.5 105.923 1263.5 104.6V99.8ZM1299.12 93.08C1300.89 93.08 1302.29 93.6667 1303.32 94.84C1304.36 96.0133 1304.88 97.6133 1304.88 99.64V104.792C1304.88 106.797 1304.36 108.387 1303.32 109.56C1302.29 110.733 1300.89 111.32 1299.12 111.32C1297.8 111.32 1296.71 111 1295.86 110.36C1295.01 109.699 1294.51 108.792 1294.36 107.64H1294.32V111H1291.44V87.64H1294.32V92.76L1294.26 96.76H1294.36C1294.53 95.6293 1295.04 94.7333 1295.89 94.072C1296.75 93.4107 1297.82 93.08 1299.12 93.08ZM1302 99.8C1302 98.456 1301.66 97.4213 1300.98 96.696C1300.32 95.9493 1299.38 95.576 1298.16 95.576C1296.97 95.576 1296.03 95.9493 1295.35 96.696C1294.67 97.4427 1294.32 98.4773 1294.32 99.8V104.6C1294.32 105.923 1294.67 106.957 1295.35 107.704C1296.03 108.451 1296.97 108.824 1298.16 108.824C1299.38 108.824 1300.32 108.461 1300.98 107.736C1301.66 106.989 1302 105.944 1302 104.6V99.8ZM1317.26 111.32C1315.23 111.32 1313.61 110.712 1312.39 109.496C1311.18 108.28 1310.57 106.648 1310.57 104.6V93.4H1313.45V104.6C1313.45 105.923 1313.78 106.957 1314.44 107.704C1315.12 108.429 1316.06 108.792 1317.26 108.792C1318.47 108.792 1319.42 108.429 1320.1 107.704C1320.79 106.957 1321.13 105.923 1321.13 104.6V93.4H1324.01V104.6C1324.01 106.648 1323.39 108.28 1322.15 109.496C1320.94 110.712 1319.3 111.32 1317.26 111.32ZM1333.92 111V96.376H1328.8V93.752H1333.92V92.056C1333.92 90.6907 1334.33 89.6133 1335.16 88.824C1336 88.0347 1337.13 87.64 1338.56 87.64H1344V90.264H1338.56C1338 90.264 1337.56 90.424 1337.24 90.744C1336.94 91.0427 1336.8 91.4693 1336.8 92.024V93.752H1344V96.376H1336.8V111H1333.92ZM1353.1 111V96.376H1347.98V93.752H1353.1V92.056C1353.1 90.6907 1353.52 89.6133 1354.35 88.824C1355.18 88.0347 1356.31 87.64 1357.74 87.64H1363.18V90.264H1357.74C1357.19 90.264 1356.75 90.424 1356.43 90.744C1356.13 91.0427 1355.98 91.4693 1355.98 92.024V93.752H1363.18V96.376H1355.98V111H1353.1ZM1381.63 102.904H1370.88V104.6C1370.88 106.008 1371.21 107.075 1371.87 107.8C1372.56 108.525 1373.55 108.888 1374.85 108.888C1377.09 108.888 1378.37 108.099 1378.69 106.52H1381.57C1381.38 107.992 1380.67 109.165 1379.46 110.04C1378.24 110.893 1376.71 111.32 1374.85 111.32C1372.78 111.32 1371.13 110.712 1369.89 109.496C1368.67 108.28 1368.07 106.648 1368.07 104.6V99.8C1368.07 97.752 1368.67 96.12 1369.89 94.904C1371.13 93.688 1372.78 93.08 1374.85 93.08C1376.92 93.08 1378.56 93.688 1379.78 94.904C1381.02 96.12 1381.63 97.752 1381.63 99.8V102.904ZM1370.88 100.728H1378.82V99.8C1378.82 98.392 1378.48 97.3253 1377.79 96.6C1377.13 95.8533 1376.15 95.48 1374.85 95.48C1373.55 95.48 1372.56 95.8533 1371.87 96.6C1371.21 97.3253 1370.88 98.392 1370.88 99.8V100.728ZM1395.45 93.08C1397.3 93.08 1398.77 93.6667 1399.86 94.84C1400.97 95.992 1401.53 97.56 1401.53 99.544V100.6H1398.65V99.8C1398.65 98.4347 1398.3 97.3787 1397.62 96.632C1396.96 95.8853 1396.01 95.512 1394.77 95.512C1393.56 95.512 1392.6 95.896 1391.89 96.664C1391.21 97.4107 1390.87 98.456 1390.87 99.8V111H1387.99V93.4H1390.81V96.536C1391.38 94.232 1392.93 93.08 1395.45 93.08Z" fill="black"/>
<rect x="1069" y="281" width="396" height="196" rx="30" fill="#D9D9D9" stroke="#3B9B0E" stroke-width="4"/>
<path d="M1144.73 390.32C1142.59 390.32 1140.91 389.723 1139.67 388.528C1138.43 387.333 1137.82 385.691 1137.82 383.6V373.04C1137.82 370.949 1138.43 369.307 1139.67 368.112C1140.91 366.917 1142.59 366.32 1144.73 366.32C1146.82 366.32 1148.48 366.928 1149.72 368.144C1150.96 369.339 1151.58 370.971 1151.58 373.04H1148.7C1148.7 371.717 1148.34 370.693 1147.64 369.968C1146.96 369.243 1145.99 368.88 1144.73 368.88C1143.47 368.88 1142.48 369.243 1141.75 369.968C1141.05 370.693 1140.7 371.707 1140.7 373.008V383.6C1140.7 384.923 1141.05 385.947 1141.75 386.672C1142.46 387.397 1143.45 387.76 1144.73 387.76C1145.99 387.76 1146.96 387.397 1147.64 386.672C1148.34 385.947 1148.7 384.923 1148.7 383.6H1151.58C1151.58 385.669 1150.96 387.312 1149.72 388.528C1148.48 389.723 1146.82 390.32 1144.73 390.32ZM1163.79 390.32C1161.7 390.32 1160.04 389.723 1158.83 388.528C1157.61 387.333 1157 385.691 1157 383.6V378.8C1157 376.709 1157.61 375.067 1158.83 373.872C1160.04 372.677 1161.7 372.08 1163.79 372.08C1165.88 372.08 1167.53 372.677 1168.75 373.872C1169.96 375.067 1170.57 376.699 1170.57 378.768V383.6C1170.57 385.691 1169.96 387.333 1168.75 388.528C1167.53 389.723 1165.88 390.32 1163.79 390.32ZM1163.79 387.76C1165.05 387.76 1166.01 387.408 1166.67 386.704C1167.35 385.979 1167.69 384.944 1167.69 383.6V378.8C1167.69 377.456 1167.35 376.432 1166.67 375.728C1166.01 375.003 1165.05 374.64 1163.79 374.64C1162.53 374.64 1161.56 375.003 1160.88 375.728C1160.21 376.432 1159.88 377.456 1159.88 378.8V383.6C1159.88 384.944 1160.21 385.979 1160.88 386.704C1161.56 387.408 1162.53 387.76 1163.79 387.76ZM1186.98 372.08C1188.06 372.08 1188.92 372.496 1189.53 373.328C1190.15 374.139 1190.46 375.237 1190.46 376.624V390H1187.81V376.592C1187.81 375.867 1187.65 375.301 1187.33 374.896C1187.03 374.491 1186.58 374.288 1185.98 374.288C1185.41 374.288 1184.95 374.491 1184.61 374.896C1184.29 375.28 1184.13 375.835 1184.13 376.56V390H1181.82V376.592C1181.82 375.867 1181.65 375.301 1181.31 374.896C1180.99 374.491 1180.53 374.288 1179.94 374.288C1179.36 374.288 1178.91 374.491 1178.59 374.896C1178.29 375.28 1178.14 375.835 1178.14 376.56V390H1175.49V372.4H1178.02V374.512H1178.21C1178.34 373.765 1178.64 373.179 1179.14 372.752C1179.65 372.304 1180.29 372.08 1181.06 372.08C1181.78 372.08 1182.39 372.293 1182.88 372.72C1183.37 373.125 1183.72 373.723 1183.94 374.512H1184.06C1184.21 373.765 1184.54 373.179 1185.06 372.752C1185.57 372.304 1186.21 372.08 1186.98 372.08ZM1206.16 372.08C1207.25 372.08 1208.1 372.496 1208.72 373.328C1209.34 374.139 1209.65 375.237 1209.65 376.624V390H1206.99V376.592C1206.99 375.867 1206.83 375.301 1206.51 374.896C1206.22 374.491 1205.77 374.288 1205.17 374.288C1204.59 374.288 1204.14 374.491 1203.79 374.896C1203.47 375.28 1203.31 375.835 1203.31 376.56V390H1201.01V376.592C1201.01 375.867 1200.84 375.301 1200.5 374.896C1200.18 374.491 1199.72 374.288 1199.12 374.288C1198.55 374.288 1198.1 374.491 1197.78 374.896C1197.48 375.28 1197.33 375.835 1197.33 376.56V390H1194.67V372.4H1197.2V374.512H1197.39C1197.52 373.765 1197.83 373.179 1198.32 372.752C1198.83 372.304 1199.47 372.08 1200.24 372.08C1200.97 372.08 1201.58 372.293 1202.07 372.72C1202.56 373.125 1202.91 373.723 1203.12 374.512H1203.25C1203.4 373.765 1203.73 373.179 1204.24 372.752C1204.75 372.304 1205.39 372.08 1206.16 372.08ZM1221.41 372.112C1223.46 372.112 1225.08 372.635 1226.28 373.68C1227.47 374.704 1228.07 376.112 1228.07 377.904V390H1225.25V386.64H1225.22C1225.14 387.749 1224.58 388.645 1223.56 389.328C1222.53 389.989 1221.25 390.32 1219.72 390.32C1217.93 390.32 1216.5 389.851 1215.43 388.912C1214.36 387.973 1213.83 386.704 1213.83 385.104C1213.83 383.419 1214.35 382.096 1215.4 381.136C1216.46 380.176 1217.92 379.696 1219.75 379.696H1225.19V378C1225.19 376.933 1224.85 376.112 1224.17 375.536C1223.5 374.939 1222.58 374.64 1221.38 374.64C1220.34 374.64 1219.47 374.853 1218.79 375.28C1218.11 375.707 1217.71 376.293 1217.61 377.04H1214.73C1214.92 375.547 1215.62 374.352 1216.84 373.456C1218.05 372.56 1219.58 372.112 1221.41 372.112ZM1220.39 388.048C1221.8 388.048 1222.95 387.717 1223.85 387.056C1224.74 386.373 1225.19 385.488 1225.19 384.4V381.904H1219.81C1218.85 381.904 1218.1 382.171 1217.54 382.704C1216.99 383.237 1216.71 383.973 1216.71 384.912C1216.71 385.893 1217.04 386.661 1217.7 387.216C1218.36 387.771 1219.26 388.048 1220.39 388.048ZM1241.47 372.08C1243.24 372.08 1244.64 372.635 1245.69 373.744C1246.73 374.832 1247.26 376.304 1247.26 378.16V390H1244.38V378.48C1244.38 377.243 1244.04 376.272 1243.35 375.568C1242.69 374.864 1241.79 374.512 1240.63 374.512C1239.42 374.512 1238.47 374.896 1237.79 375.664C1237.1 376.411 1236.76 377.456 1236.76 378.8V390H1233.88V372.4H1236.76V375.76H1236.79C1236.94 374.587 1237.42 373.68 1238.23 373.04C1239.04 372.4 1240.12 372.08 1241.47 372.08ZM1263.5 366.64H1266.38V390H1263.5V386.64H1263.47C1263.32 387.792 1262.82 388.699 1261.97 389.36C1261.11 390 1260.02 390.32 1258.7 390.32C1256.93 390.32 1255.52 389.733 1254.48 388.56C1253.45 387.387 1252.94 385.797 1252.94 383.792V378.64C1252.94 376.613 1253.45 375.013 1254.48 373.84C1255.52 372.667 1256.93 372.08 1258.7 372.08C1260 372.08 1261.08 372.411 1261.93 373.072C1262.79 373.733 1263.3 374.629 1263.47 375.76H1263.57L1263.5 371.76V366.64ZM1263.5 378.8C1263.5 377.477 1263.16 376.443 1262.48 375.696C1261.79 374.949 1260.86 374.576 1259.66 374.576C1258.45 374.576 1257.5 374.949 1256.81 375.696C1256.15 376.421 1255.82 377.456 1255.82 378.8V383.6C1255.82 384.944 1256.15 385.989 1256.81 386.736C1257.5 387.461 1258.45 387.824 1259.66 387.824C1260.86 387.824 1261.79 387.451 1262.48 386.704C1263.16 385.957 1263.5 384.923 1263.5 383.6V378.8ZM1299.12 372.08C1300.89 372.08 1302.29 372.667 1303.32 373.84C1304.36 375.013 1304.88 376.613 1304.88 378.64V383.792C1304.88 385.797 1304.36 387.387 1303.32 388.56C1302.29 389.733 1300.89 390.32 1299.12 390.32C1297.8 390.32 1296.71 390 1295.86 389.36C1295.01 388.699 1294.51 387.792 1294.36 386.64H1294.32V390H1291.44V366.64H1294.32V371.76L1294.26 375.76H1294.36C1294.53 374.629 1295.04 373.733 1295.89 373.072C1296.75 372.411 1297.82 372.08 1299.12 372.08ZM1302 378.8C1302 377.456 1301.66 376.421 1300.98 375.696C1300.32 374.949 1299.38 374.576 1298.16 374.576C1296.97 374.576 1296.03 374.949 1295.35 375.696C1294.67 376.443 1294.32 377.477 1294.32 378.8V383.6C1294.32 384.923 1294.67 385.957 1295.35 386.704C1296.03 387.451 1296.97 387.824 1298.16 387.824C1299.38 387.824 1300.32 387.461 1300.98 386.736C1301.66 385.989 1302 384.944 1302 383.6V378.8ZM1317.26 390.32C1315.23 390.32 1313.61 389.712 1312.39 388.496C1311.18 387.28 1310.57 385.648 1310.57 383.6V372.4H1313.45V383.6C1313.45 384.923 1313.78 385.957 1314.44 386.704C1315.12 387.429 1316.06 387.792 1317.26 387.792C1318.47 387.792 1319.42 387.429 1320.1 386.704C1320.79 385.957 1321.13 384.923 1321.13 383.6V372.4H1324.01V383.6C1324.01 385.648 1323.39 387.28 1322.15 388.496C1320.94 389.712 1319.3 390.32 1317.26 390.32ZM1333.92 390V375.376H1328.8V372.752H1333.92V371.056C1333.92 369.691 1334.33 368.613 1335.16 367.824C1336 367.035 1337.13 366.64 1338.56 366.64H1344V369.264H1338.56C1338 369.264 1337.56 369.424 1337.24 369.744C1336.94 370.043 1336.8 370.469 1336.8 371.024V372.752H1344V375.376H1336.8V390H1333.92ZM1353.1 390V375.376H1347.98V372.752H1353.1V371.056C1353.1 369.691 1353.52 368.613 1354.35 367.824C1355.18 367.035 1356.31 366.64 1357.74 366.64H1363.18V369.264H1357.74C1357.19 369.264 1356.75 369.424 1356.43 369.744C1356.13 370.043 1355.98 370.469 1355.98 371.024V372.752H1363.18V375.376H1355.98V390H1353.1ZM1381.63 381.904H1370.88V383.6C1370.88 385.008 1371.21 386.075 1371.87 386.8C1372.56 387.525 1373.55 387.888 1374.85 387.888C1377.09 387.888 1378.37 387.099 1378.69 385.52H1381.57C1381.38 386.992 1380.67 388.165 1379.46 389.04C1378.24 389.893 1376.71 390.32 1374.85 390.32C1372.78 390.32 1371.13 389.712 1369.89 388.496C1368.67 387.28 1368.07 385.648 1368.07 383.6V378.8C1368.07 376.752 1368.67 375.12 1369.89 373.904C1371.13 372.688 1372.78 372.08 1374.85 372.08C1376.92 372.08 1378.56 372.688 1379.78 373.904C1381.02 375.12 1381.63 376.752 1381.63 378.8V381.904ZM1370.88 379.728H1378.82V378.8C1378.82 377.392 1378.48 376.325 1377.79 375.6C1377.13 374.853 1376.15 374.48 1374.85 374.48C1373.55 374.48 1372.56 374.853 1371.87 375.6C1371.21 376.325 1370.88 377.392 1370.88 378.8V379.728ZM1395.45 372.08C1397.3 372.08 1398.77 372.667 1399.86 373.84C1400.97 374.992 1401.53 376.56 1401.53 378.544V379.6H1398.65V378.8C1398.65 377.435 1398.3 376.379 1397.62 375.632C1396.96 374.885 1396.01 374.512 1394.77 374.512C1393.56 374.512 1392.6 374.896 1391.89 375.664C1391.21 376.411 1390.87 377.456 1390.87 378.8V390H1387.99V372.4H1390.81V375.536C1391.38 373.232 1392.93 372.08 1395.45 372.08Z" fill="black"/>
<rect x="1069" y="560" width="396" height="196" rx="30" fill="#D9D9D9" stroke="#3B9B0E" stroke-width="4"/>
<path d="M1144.73 669.32C1142.59 669.32 1140.91 668.723 1139.67 667.528C1138.43 666.333 1137.82 664.691 1137.82 662.6V652.04C1137.82 649.949 1138.43 648.307 1139.67 647.112C1140.91 645.917 1142.59 645.32 1144.73 645.32C1146.82 645.32 1148.48 645.928 1149.72 647.144C1150.96 648.339 1151.58 649.971 1151.58 652.04H1148.7C1148.7 650.717 1148.34 649.693 1147.64 648.968C1146.96 648.243 1145.99 647.88 1144.73 647.88C1143.47 647.88 1142.48 648.243 1141.75 648.968C1141.05 649.693 1140.7 650.707 1140.7 652.008V662.6C1140.7 663.923 1141.05 664.947 1141.75 665.672C1142.46 666.397 1143.45 666.76 1144.73 666.76C1145.99 666.76 1146.96 666.397 1147.64 665.672C1148.34 664.947 1148.7 663.923 1148.7 662.6H1151.58C1151.58 664.669 1150.96 666.312 1149.72 667.528C1148.48 668.723 1146.82 669.32 1144.73 669.32ZM1163.79 669.32C1161.7 669.32 1160.04 668.723 1158.83 667.528C1157.61 666.333 1157 664.691 1157 662.6V657.8C1157 655.709 1157.61 654.067 1158.83 652.872C1160.04 651.677 1161.7 651.08 1163.79 651.08C1165.88 651.08 1167.53 651.677 1168.75 652.872C1169.96 654.067 1170.57 655.699 1170.57 657.768V662.6C1170.57 664.691 1169.96 666.333 1168.75 667.528C1167.53 668.723 1165.88 669.32 1163.79 669.32ZM1163.79 666.76C1165.05 666.76 1166.01 666.408 1166.67 665.704C1167.35 664.979 1167.69 663.944 1167.69 662.6V657.8C1167.69 656.456 1167.35 655.432 1166.67 654.728C1166.01 654.003 1165.05 653.64 1163.79 653.64C1162.53 653.64 1161.56 654.003 1160.88 654.728C1160.21 655.432 1159.88 656.456 1159.88 657.8V662.6C1159.88 663.944 1160.21 664.979 1160.88 665.704C1161.56 666.408 1162.53 666.76 1163.79 666.76ZM1186.98 651.08C1188.06 651.08 1188.92 651.496 1189.53 652.328C1190.15 653.139 1190.46 654.237 1190.46 655.624V669H1187.81V655.592C1187.81 654.867 1187.65 654.301 1187.33 653.896C1187.03 653.491 1186.58 653.288 1185.98 653.288C1185.41 653.288 1184.95 653.491 1184.61 653.896C1184.29 654.28 1184.13 654.835 1184.13 655.56V669H1181.82V655.592C1181.82 654.867 1181.65 654.301 1181.31 653.896C1180.99 653.491 1180.53 653.288 1179.94 653.288C1179.36 653.288 1178.91 653.491 1178.59 653.896C1178.29 654.28 1178.14 654.835 1178.14 655.56V669H1175.49V651.4H1178.02V653.512H1178.21C1178.34 652.765 1178.64 652.179 1179.14 651.752C1179.65 651.304 1180.29 651.08 1181.06 651.08C1181.78 651.08 1182.39 651.293 1182.88 651.72C1183.37 652.125 1183.72 652.723 1183.94 653.512H1184.06C1184.21 652.765 1184.54 652.179 1185.06 651.752C1185.57 651.304 1186.21 651.08 1186.98 651.08ZM1206.16 651.08C1207.25 651.08 1208.1 651.496 1208.72 652.328C1209.34 653.139 1209.65 654.237 1209.65 655.624V669H1206.99V655.592C1206.99 654.867 1206.83 654.301 1206.51 653.896C1206.22 653.491 1205.77 653.288 1205.17 653.288C1204.59 653.288 1204.14 653.491 1203.79 653.896C1203.47 654.28 1203.31 654.835 1203.31 655.56V669H1201.01V655.592C1201.01 654.867 1200.84 654.301 1200.5 653.896C1200.18 653.491 1199.72 653.288 1199.12 653.288C1198.55 653.288 1198.1 653.491 1197.78 653.896C1197.48 654.28 1197.33 654.835 1197.33 655.56V669H1194.67V651.4H1197.2V653.512H1197.39C1197.52 652.765 1197.83 652.179 1198.32 651.752C1198.83 651.304 1199.47 651.08 1200.24 651.08C1200.97 651.08 1201.58 651.293 1202.07 651.72C1202.56 652.125 1202.91 652.723 1203.12 653.512H1203.25C1203.4 652.765 1203.73 652.179 1204.24 651.752C1204.75 651.304 1205.39 651.08 1206.16 651.08ZM1221.41 651.112C1223.46 651.112 1225.08 651.635 1226.28 652.68C1227.47 653.704 1228.07 655.112 1228.07 656.904V669H1225.25V665.64H1225.22C1225.14 666.749 1224.58 667.645 1223.56 668.328C1222.53 668.989 1221.25 669.32 1219.72 669.32C1217.93 669.32 1216.5 668.851 1215.43 667.912C1214.36 666.973 1213.83 665.704 1213.83 664.104C1213.83 662.419 1214.35 661.096 1215.4 660.136C1216.46 659.176 1217.92 658.696 1219.75 658.696H1225.19V657C1225.19 655.933 1224.85 655.112 1224.17 654.536C1223.5 653.939 1222.58 653.64 1221.38 653.64C1220.34 653.64 1219.47 653.853 1218.79 654.28C1218.11 654.707 1217.71 655.293 1217.61 656.04H1214.73C1214.92 654.547 1215.62 653.352 1216.84 652.456C1218.05 651.56 1219.58 651.112 1221.41 651.112ZM1220.39 667.048C1221.8 667.048 1222.95 666.717 1223.85 666.056C1224.74 665.373 1225.19 664.488 1225.19 663.4V660.904H1219.81C1218.85 660.904 1218.1 661.171 1217.54 661.704C1216.99 662.237 1216.71 662.973 1216.71 663.912C1216.71 664.893 1217.04 665.661 1217.7 666.216C1218.36 666.771 1219.26 667.048 1220.39 667.048ZM1241.47 651.08C1243.24 651.08 1244.64 651.635 1245.69 652.744C1246.73 653.832 1247.26 655.304 1247.26 657.16V669H1244.38V657.48C1244.38 656.243 1244.04 655.272 1243.35 654.568C1242.69 653.864 1241.79 653.512 1240.63 653.512C1239.42 653.512 1238.47 653.896 1237.79 654.664C1237.1 655.411 1236.76 656.456 1236.76 657.8V669H1233.88V651.4H1236.76V654.76H1236.79C1236.94 653.587 1237.42 652.68 1238.23 652.04C1239.04 651.4 1240.12 651.08 1241.47 651.08ZM1263.5 645.64H1266.38V669H1263.5V665.64H1263.47C1263.32 666.792 1262.82 667.699 1261.97 668.36C1261.11 669 1260.02 669.32 1258.7 669.32C1256.93 669.32 1255.52 668.733 1254.48 667.56C1253.45 666.387 1252.94 664.797 1252.94 662.792V657.64C1252.94 655.613 1253.45 654.013 1254.48 652.84C1255.52 651.667 1256.93 651.08 1258.7 651.08C1260 651.08 1261.08 651.411 1261.93 652.072C1262.79 652.733 1263.3 653.629 1263.47 654.76H1263.57L1263.5 650.76V645.64ZM1263.5 657.8C1263.5 656.477 1263.16 655.443 1262.48 654.696C1261.79 653.949 1260.86 653.576 1259.66 653.576C1258.45 653.576 1257.5 653.949 1256.81 654.696C1256.15 655.421 1255.82 656.456 1255.82 657.8V662.6C1255.82 663.944 1256.15 664.989 1256.81 665.736C1257.5 666.461 1258.45 666.824 1259.66 666.824C1260.86 666.824 1261.79 666.451 1262.48 665.704C1263.16 664.957 1263.5 663.923 1263.5 662.6V657.8ZM1299.12 651.08C1300.89 651.08 1302.29 651.667 1303.32 652.84C1304.36 654.013 1304.88 655.613 1304.88 657.64V662.792C1304.88 664.797 1304.36 666.387 1303.32 667.56C1302.29 668.733 1300.89 669.32 1299.12 669.32C1297.8 669.32 1296.71 669 1295.86 668.36C1295.01 667.699 1294.51 666.792 1294.36 665.64H1294.32V669H1291.44V645.64H1294.32V650.76L1294.26 654.76H1294.36C1294.53 653.629 1295.04 652.733 1295.89 652.072C1296.75 651.411 1297.82 651.08 1299.12 651.08ZM1302 657.8C1302 656.456 1301.66 655.421 1300.98 654.696C1300.32 653.949 1299.38 653.576 1298.16 653.576C1296.97 653.576 1296.03 653.949 1295.35 654.696C1294.67 655.443 1294.32 656.477 1294.32 657.8V662.6C1294.32 663.923 1294.67 664.957 1295.35 665.704C1296.03 666.451 1296.97 666.824 1298.16 666.824C1299.38 666.824 1300.32 666.461 1300.98 665.736C1301.66 664.989 1302 663.944 1302 662.6V657.8ZM1317.26 669.32C1315.23 669.32 1313.61 668.712 1312.39 667.496C1311.18 666.28 1310.57 664.648 1310.57 662.6V651.4H1313.45V662.6C1313.45 663.923 1313.78 664.957 1314.44 665.704C1315.12 666.429 1316.06 666.792 1317.26 666.792C1318.47 666.792 1319.42 666.429 1320.1 665.704C1320.79 664.957 1321.13 663.923 1321.13 662.6V651.4H1324.01V662.6C1324.01 664.648 1323.39 666.28 1322.15 667.496C1320.94 668.712 1319.3 669.32 1317.26 669.32ZM1333.92 669V654.376H1328.8V651.752H1333.92V650.056C1333.92 648.691 1334.33 647.613 1335.16 646.824C1336 646.035 1337.13 645.64 1338.56 645.64H1344V648.264H1338.56C1338 648.264 1337.56 648.424 1337.24 648.744C1336.94 649.043 1336.8 649.469 1336.8 650.024V651.752H1344V654.376H1336.8V669H1333.92ZM1353.1 669V654.376H1347.98V651.752H1353.1V650.056C1353.1 648.691 1353.52 647.613 1354.35 646.824C1355.18 646.035 1356.31 645.64 1357.74 645.64H1363.18V648.264H1357.74C1357.19 648.264 1356.75 648.424 1356.43 648.744C1356.13 649.043 1355.98 649.469 1355.98 650.024V651.752H1363.18V654.376H1355.98V669H1353.1ZM1381.63 660.904H1370.88V662.6C1370.88 664.008 1371.21 665.075 1371.87 665.8C1372.56 666.525 1373.55 666.888 1374.85 666.888C1377.09 666.888 1378.37 666.099 1378.69 664.52H1381.57C1381.38 665.992 1380.67 667.165 1379.46 668.04C1378.24 668.893 1376.71 669.32 1374.85 669.32C1372.78 669.32 1371.13 668.712 1369.89 667.496C1368.67 666.28 1368.07 664.648 1368.07 662.6V657.8C1368.07 655.752 1368.67 654.12 1369.89 652.904C1371.13 651.688 1372.78 651.08 1374.85 651.08C1376.92 651.08 1378.56 651.688 1379.78 652.904C1381.02 654.12 1381.63 655.752 1381.63 657.8V660.904ZM1370.88 658.728H1378.82V657.8C1378.82 656.392 1378.48 655.325 1377.79 654.6C1377.13 653.853 1376.15 653.48 1374.85 653.48C1373.55 653.48 1372.56 653.853 1371.87 654.6C1371.21 655.325 1370.88 656.392 1370.88 657.8V658.728ZM1395.45 651.08C1397.3 651.08 1398.77 651.667 1399.86 652.84C1400.97 653.992 1401.53 655.56 1401.53 657.544V658.6H1398.65V657.8C1398.65 656.435 1398.3 655.379 1397.62 654.632C1396.96 653.885 1396.01 653.512 1394.77 653.512C1393.56 653.512 1392.6 653.896 1391.89 654.664C1391.21 655.411 1390.87 656.456 1390.87 657.8V669H1387.99V651.4H1390.81V654.536C1391.38 652.232 1392.93 651.08 1395.45 651.08Z" fill="black"/>
<path d="M503.828 401.828C505.391 400.266 505.391 397.734 503.828 396.172L478.373 370.716C476.81 369.154 474.278 369.154 472.716 370.716C471.154 372.278 471.154 374.81 472.716 376.373L495.343 399L472.716 421.627C471.154 423.19 471.154 425.722 472.716 427.284C474.278 428.846 476.81 428.846 478.373 427.284L503.828 401.828ZM423 403H501V395H423V403Z" fill="#C81540"/>
<path d="M1034.83 392.828C1036.39 391.266 1036.39 388.734 1034.83 387.172L1009.37 361.716C1007.81 360.154 1005.28 360.154 1003.72 361.716C1002.15 363.278 1002.15 365.81 1003.72 367.373L1026.34 390L1003.72 412.627C1002.15 414.19 1002.15 416.722 1003.72 418.284C1005.28 419.846 1007.81 419.846 1009.37 418.284L1034.83 392.828ZM954 394H1032V386H954V394Z" fill="#C81540"/>
<path d="M1035.58 103.211C1034.59 101.235 1032.19 100.434 1030.21 101.422L998.012 117.522C996.036 118.51 995.235 120.913 996.223 122.889C997.211 124.864 999.614 125.665 1001.59 124.677L1030.21 110.367L1044.52 138.988C1045.51 140.964 1047.91 141.765 1049.89 140.777C1051.86 139.789 1052.67 137.386 1051.68 135.411L1035.58 103.211ZM957.795 340.265L1035.79 106.265L1028.21 103.735L950.205 337.735L957.795 340.265Z" fill="#C81540"/>
<path d="M1030.19 678.584C1032.17 679.572 1034.57 678.772 1035.56 676.796L1051.66 644.598C1052.65 642.622 1051.85 640.219 1049.87 639.231C1047.9 638.243 1045.49 639.044 1044.5 641.02L1030.19 669.64L1001.57 655.327C999.595 654.339 997.192 655.139 996.204 657.115C995.216 659.091 996.017 661.494 997.993 662.482L1030.19 678.584ZM950.205 442.265L1028.18 676.271L1035.77 673.742L957.795 439.735L950.205 442.265Z" fill="#C81540"/>
</svg>
