<svg width="1815" height="516" viewBox="0 0 1815 516" fill="none" xmlns="http://www.w3.org/2000/svg">
<line y1="256" x2="1815" y2="256" stroke="#3262A9" stroke-width="4"/>
<line x1="271" y1="-3.40815e-08" x2="271" y2="516" stroke="#3262A9" stroke-width="4"/>
<line x1="642" y1="-3.40815e-08" x2="642" y2="516" stroke="#3262A9" stroke-width="4" stroke-dasharray="8 8"/>
<line x1="1384" y1="-3.40815e-08" x2="1384" y2="516" stroke="#3262A9" stroke-width="4" stroke-dasharray="8 8"/>
<line x1="1778" y1="-3.40815e-08" x2="1778" y2="516" stroke="#3262A9" stroke-width="4" stroke-dasharray="8 8"/>
<line x1="1013" y1="-3.40815e-08" x2="1013" y2="516" stroke="#3262A9" stroke-width="4" stroke-dasharray="8 8"/>
<path d="M144 279L236.665 332.5V439.5L144 493L51.3353 439.5V332.5L144 279Z" fill="#3B9B0E"/>
<path d="M108.456 410.64C104.189 410.64 100.819 409.445 98.344 407.056C95.8693 404.667 94.632 401.381 94.632 397.2V376.08C94.632 371.899 95.8693 368.613 98.344 366.224C100.819 363.835 104.189 362.64 108.456 362.64C112.637 362.64 115.965 363.856 118.44 366.288C120.915 368.677 122.152 371.941 122.152 376.08H116.392C116.392 373.435 115.688 371.387 114.28 369.936C112.915 368.485 110.973 367.76 108.456 367.76C105.939 367.76 103.955 368.485 102.504 369.936C101.096 371.387 100.392 373.413 100.392 376.016V397.2C100.392 399.845 101.096 401.893 102.504 403.344C103.912 404.795 105.896 405.52 108.456 405.52C110.973 405.52 112.915 404.795 114.28 403.344C115.688 401.893 116.392 399.845 116.392 397.2V391.44H106.92V386.32H122.152V397.2C122.152 401.339 120.915 404.624 118.44 407.056C115.965 409.445 112.637 410.64 108.456 410.64ZM133.263 410V363.28H148.303C152.655 363.28 156.111 364.539 158.671 367.056C161.274 369.531 162.575 372.859 162.575 377.04C162.575 381.221 161.274 384.571 158.671 387.088C156.111 389.563 152.655 390.8 148.303 390.8H139.023V410H133.263ZM148.303 385.68C150.82 385.68 152.826 384.912 154.319 383.376C155.855 381.797 156.623 379.685 156.623 377.04C156.623 374.395 155.855 372.304 154.319 370.768C152.826 369.189 150.82 368.4 148.303 368.4H139.023V385.68H148.303ZM184.95 410.64C180.641 410.64 177.313 409.467 174.966 407.12C172.662 404.731 171.51 401.424 171.51 397.2V363.28H177.27V397.2C177.27 399.803 177.91 401.851 179.19 403.344C180.513 404.795 182.433 405.52 184.95 405.52C187.467 405.52 189.366 404.795 190.646 403.344C191.969 401.851 192.63 399.803 192.63 397.2V363.28H198.39V397.2C198.39 401.424 197.238 404.731 194.934 407.12C192.63 409.467 189.302 410.64 184.95 410.64Z" fill="white"/>
<path d="M144 23L236.665 76.5V183.5L144 237L51.3353 183.5V76.5L144 23Z" fill="#C81540"/>
<path d="M108.456 154.64C104.189 154.64 100.819 153.445 98.344 151.056C95.8693 148.667 94.632 145.381 94.632 141.2V120.08C94.632 115.899 95.8693 112.613 98.344 110.224C100.819 107.835 104.189 106.64 108.456 106.64C112.637 106.64 115.965 107.856 118.44 110.288C120.915 112.677 122.152 115.941 122.152 120.08H116.392C116.392 117.435 115.688 115.387 114.28 113.936C112.915 112.485 110.973 111.76 108.456 111.76C105.939 111.76 103.955 112.485 102.504 113.936C101.096 115.387 100.392 117.413 100.392 120.016V141.2C100.392 143.845 101.096 145.893 102.504 147.344C103.912 148.795 105.896 149.52 108.456 149.52C110.973 149.52 112.915 148.795 114.28 147.344C115.688 145.893 116.392 143.845 116.392 141.2H122.152C122.152 145.339 120.915 148.624 118.44 151.056C115.965 153.445 112.637 154.64 108.456 154.64ZM133.263 154V107.28H148.303C152.655 107.28 156.111 108.539 158.671 111.056C161.274 113.531 162.575 116.859 162.575 121.04C162.575 125.221 161.274 128.571 158.671 131.088C156.111 133.563 152.655 134.8 148.303 134.8H139.023V154H133.263ZM148.303 129.68C150.82 129.68 152.826 128.912 154.319 127.376C155.855 125.797 156.623 123.685 156.623 121.04C156.623 118.395 155.855 116.304 154.319 114.768C152.826 113.189 150.82 112.4 148.303 112.4H139.023V129.68H148.303ZM184.95 154.64C180.641 154.64 177.313 153.467 174.966 151.12C172.662 148.731 171.51 145.424 171.51 141.2V107.28H177.27V141.2C177.27 143.803 177.91 145.851 179.19 147.344C180.513 148.795 182.433 149.52 184.95 149.52C187.467 149.52 189.366 148.795 190.646 147.344C191.969 145.851 192.63 143.803 192.63 141.2V107.28H198.39V141.2C198.39 145.424 197.238 148.731 194.934 151.12C192.63 153.467 189.302 154.64 184.95 154.64Z" fill="white"/>
<rect x="322" y="63" width="268" height="133" fill="#C81540"/>
<path d="M384.8 144H368V114.8H384.8V118.04H371.56V127.12H383.4V130.36H371.56V140.76H384.8V144ZM399.584 144V114.8H404.384L413.304 139.8C413.038 136.6 412.904 133.733 412.904 131.2V114.8H416.384V144H411.584L402.704 119C402.944 122.2 403.064 125.067 403.064 127.6V144H399.584ZM440.129 144.4C437.462 144.4 435.355 143.653 433.809 142.16C432.262 140.667 431.489 138.613 431.489 136V122.8C431.489 120.187 432.262 118.133 433.809 116.64C435.355 115.147 437.462 114.4 440.129 114.4C442.742 114.4 444.822 115.16 446.369 116.68C447.915 118.173 448.689 120.213 448.689 122.8H445.089C445.089 121.147 444.649 119.867 443.769 118.96C442.915 118.053 441.702 117.6 440.129 117.6C438.555 117.6 437.315 118.053 436.409 118.96C435.529 119.867 435.089 121.133 435.089 122.76V136C435.089 137.653 435.529 138.933 436.409 139.84C437.289 140.747 438.529 141.2 440.129 141.2C441.702 141.2 442.915 140.747 443.769 139.84C444.649 138.933 445.089 137.653 445.089 136H448.689C448.689 138.587 447.915 140.64 446.369 142.16C444.822 143.653 442.742 144.4 440.129 144.4ZM471.953 144.4C469.34 144.4 467.273 143.653 465.753 142.16C464.233 140.667 463.473 138.613 463.473 136V122.8C463.473 120.187 464.233 118.133 465.753 116.64C467.273 115.147 469.34 114.4 471.953 114.4C474.566 114.4 476.633 115.147 478.153 116.64C479.673 118.133 480.433 120.173 480.433 122.76V136C480.433 138.613 479.673 140.667 478.153 142.16C476.633 143.653 474.566 144.4 471.953 144.4ZM471.953 141.2C473.526 141.2 474.726 140.76 475.553 139.88C476.406 138.973 476.833 137.68 476.833 136V122.8C476.833 121.12 476.406 119.84 475.553 118.96C474.726 118.053 473.526 117.6 471.953 117.6C470.38 117.6 469.166 118.053 468.313 118.96C467.486 119.84 467.073 121.12 467.073 122.8V136C467.073 137.68 467.486 138.973 468.313 139.88C469.166 140.76 470.38 141.2 471.953 141.2ZM495.618 144V114.8H503.178C505.044 114.8 506.671 115.16 508.058 115.88C509.444 116.6 510.511 117.627 511.258 118.96C512.031 120.267 512.418 121.8 512.418 123.56V135.2C512.418 137.893 511.578 140.04 509.898 141.64C508.244 143.213 506.004 144 503.178 144H495.618ZM503.178 140.8C504.938 140.8 506.311 140.307 507.298 139.32C508.311 138.333 508.818 136.96 508.818 135.2V123.56C508.818 121.827 508.311 120.467 507.298 119.48C506.311 118.493 504.938 118 503.178 118H499.218V140.8H503.178ZM544.722 144H527.922V114.8H544.722V118.04H531.482V127.12H543.322V130.36H531.482V140.76H544.722V144Z" fill="white"/>
<rect x="692" y="319" width="268" height="133" fill="#3B9B0E"/>
<path d="M738.8 400H722V370.8H738.8V374.04H725.56V383.12H737.4V386.36H725.56V396.76H738.8V400ZM751.584 400L759.984 385.2L752.024 370.8H756.184L760.704 379.44L762.064 382.12C762.518 381.133 762.958 380.24 763.384 379.44L767.984 370.8H771.944L763.984 384.96L772.384 400H768.264L763.264 390.72C762.838 389.947 762.398 389.04 761.944 388C761.464 389.013 761.024 389.907 760.624 390.68L755.584 400H751.584ZM802.769 400H785.969V370.8H802.769V374.04H789.529V383.12H801.369V386.36H789.529V396.76H802.769V400ZM826.113 400.4C823.446 400.4 821.34 399.653 819.793 398.16C818.246 396.667 817.473 394.613 817.473 392V378.8C817.473 376.187 818.246 374.133 819.793 372.64C821.34 371.147 823.446 370.4 826.113 370.4C828.726 370.4 830.806 371.16 832.353 372.68C833.9 374.173 834.673 376.213 834.673 378.8H831.073C831.073 377.147 830.633 375.867 829.753 374.96C828.9 374.053 827.686 373.6 826.113 373.6C824.54 373.6 823.3 374.053 822.393 374.96C821.513 375.867 821.073 377.133 821.073 378.76V392C821.073 393.653 821.513 394.933 822.393 395.84C823.273 396.747 824.513 397.2 826.113 397.2C827.686 397.2 828.9 396.747 829.753 395.84C830.633 394.933 831.073 393.653 831.073 392H834.673C834.673 394.587 833.9 396.64 832.353 398.16C830.806 399.653 828.726 400.4 826.113 400.4ZM857.938 400.4C855.244 400.4 853.164 399.667 851.698 398.2C850.258 396.707 849.538 394.64 849.538 392V370.8H853.138V392C853.138 393.627 853.538 394.907 854.338 395.84C855.164 396.747 856.364 397.2 857.938 397.2C859.511 397.2 860.698 396.747 861.498 395.84C862.324 394.907 862.738 393.627 862.738 392V370.8H866.338V392C866.338 394.64 865.618 396.707 864.178 398.2C862.738 399.667 860.658 400.4 857.938 400.4ZM891.722 400H888.122V374.04H880.122V370.76H899.722V374.04H891.722V400ZM930.706 400H913.906V370.8H930.706V374.04H917.466V383.12H929.306V386.36H917.466V396.76H930.706V400Z" fill="white"/>
<rect x="1445" y="319" width="268" height="133" fill="#3B9B0E"/>
<path d="M1491.8 400H1475V370.8H1491.8V374.04H1478.56V383.12H1490.4V386.36H1478.56V396.76H1491.8V400ZM1504.58 400L1512.98 385.2L1505.02 370.8H1509.18L1513.7 379.44L1515.06 382.12C1515.52 381.133 1515.96 380.24 1516.38 379.44L1520.98 370.8H1524.94L1516.98 384.96L1525.38 400H1521.26L1516.26 390.72C1515.84 389.947 1515.4 389.04 1514.94 388C1514.46 389.013 1514.02 389.907 1513.62 390.68L1508.58 400H1504.58ZM1555.77 400H1538.97V370.8H1555.77V374.04H1542.53V383.12H1554.37V386.36H1542.53V396.76H1555.77V400ZM1579.11 400.4C1576.45 400.4 1574.34 399.653 1572.79 398.16C1571.25 396.667 1570.47 394.613 1570.47 392V378.8C1570.47 376.187 1571.25 374.133 1572.79 372.64C1574.34 371.147 1576.45 370.4 1579.11 370.4C1581.73 370.4 1583.81 371.16 1585.35 372.68C1586.9 374.173 1587.67 376.213 1587.67 378.8H1584.07C1584.07 377.147 1583.63 375.867 1582.75 374.96C1581.9 374.053 1580.69 373.6 1579.11 373.6C1577.54 373.6 1576.3 374.053 1575.39 374.96C1574.51 375.867 1574.07 377.133 1574.07 378.76V392C1574.07 393.653 1574.51 394.933 1575.39 395.84C1576.27 396.747 1577.51 397.2 1579.11 397.2C1580.69 397.2 1581.9 396.747 1582.75 395.84C1583.63 394.933 1584.07 393.653 1584.07 392H1587.67C1587.67 394.587 1586.9 396.64 1585.35 398.16C1583.81 399.653 1581.73 400.4 1579.11 400.4ZM1610.94 400.4C1608.24 400.4 1606.16 399.667 1604.7 398.2C1603.26 396.707 1602.54 394.64 1602.54 392V370.8H1606.14V392C1606.14 393.627 1606.54 394.907 1607.34 395.84C1608.16 396.747 1609.36 397.2 1610.94 397.2C1612.51 397.2 1613.7 396.747 1614.5 395.84C1615.32 394.907 1615.74 393.627 1615.74 392V370.8H1619.34V392C1619.34 394.64 1618.62 396.707 1617.18 398.2C1615.74 399.667 1613.66 400.4 1610.94 400.4ZM1644.72 400H1641.12V374.04H1633.12V370.76H1652.72V374.04H1644.72V400ZM1683.71 400H1666.91V370.8H1683.71V374.04H1670.47V383.12H1682.31V386.36H1670.47V396.76H1683.71V400Z" fill="white"/>
<rect x="1063" y="63" width="268" height="133" fill="#C81540"/>
<path d="M1125.8 144H1109V114.8H1125.8V118.04H1112.56V127.12H1124.4V130.36H1112.56V140.76H1125.8V144ZM1140.58 144V114.8H1145.38L1154.3 139.8C1154.04 136.6 1153.9 133.733 1153.9 131.2V114.8H1157.38V144H1152.58L1143.7 119C1143.94 122.2 1144.06 125.067 1144.06 127.6V144H1140.58ZM1181.13 144.4C1178.46 144.4 1176.36 143.653 1174.81 142.16C1173.26 140.667 1172.49 138.613 1172.49 136V122.8C1172.49 120.187 1173.26 118.133 1174.81 116.64C1176.36 115.147 1178.46 114.4 1181.13 114.4C1183.74 114.4 1185.82 115.16 1187.37 116.68C1188.92 118.173 1189.69 120.213 1189.69 122.8H1186.09C1186.09 121.147 1185.65 119.867 1184.77 118.96C1183.92 118.053 1182.7 117.6 1181.13 117.6C1179.56 117.6 1178.32 118.053 1177.41 118.96C1176.53 119.867 1176.09 121.133 1176.09 122.76V136C1176.09 137.653 1176.53 138.933 1177.41 139.84C1178.29 140.747 1179.53 141.2 1181.13 141.2C1182.7 141.2 1183.92 140.747 1184.77 139.84C1185.65 138.933 1186.09 137.653 1186.09 136H1189.69C1189.69 138.587 1188.92 140.64 1187.37 142.16C1185.82 143.653 1183.74 144.4 1181.13 144.4ZM1212.95 144.4C1210.34 144.4 1208.27 143.653 1206.75 142.16C1205.23 140.667 1204.47 138.613 1204.47 136V122.8C1204.47 120.187 1205.23 118.133 1206.75 116.64C1208.27 115.147 1210.34 114.4 1212.95 114.4C1215.57 114.4 1217.63 115.147 1219.15 116.64C1220.67 118.133 1221.43 120.173 1221.43 122.76V136C1221.43 138.613 1220.67 140.667 1219.15 142.16C1217.63 143.653 1215.57 144.4 1212.95 144.4ZM1212.95 141.2C1214.53 141.2 1215.73 140.76 1216.55 139.88C1217.41 138.973 1217.83 137.68 1217.83 136V122.8C1217.83 121.12 1217.41 119.84 1216.55 118.96C1215.73 118.053 1214.53 117.6 1212.95 117.6C1211.38 117.6 1210.17 118.053 1209.31 118.96C1208.49 119.84 1208.07 121.12 1208.07 122.8V136C1208.07 137.68 1208.49 138.973 1209.31 139.88C1210.17 140.76 1211.38 141.2 1212.95 141.2ZM1236.62 144V114.8H1244.18C1246.04 114.8 1247.67 115.16 1249.06 115.88C1250.44 116.6 1251.51 117.627 1252.26 118.96C1253.03 120.267 1253.42 121.8 1253.42 123.56V135.2C1253.42 137.893 1252.58 140.04 1250.9 141.64C1249.24 143.213 1247 144 1244.18 144H1236.62ZM1244.18 140.8C1245.94 140.8 1247.31 140.307 1248.3 139.32C1249.31 138.333 1249.82 136.96 1249.82 135.2V123.56C1249.82 121.827 1249.31 120.467 1248.3 119.48C1247.31 118.493 1245.94 118 1244.18 118H1240.22V140.8H1244.18ZM1285.72 144H1268.92V114.8H1285.72V118.04H1272.48V127.12H1284.32V130.36H1272.48V140.76H1285.72V144Z" fill="white"/>
</svg>
