<svg width="1815" height="516" viewBox="0 0 1815 516" fill="none" xmlns="http://www.w3.org/2000/svg">
<line y1="256" x2="1815" y2="256" stroke="#3262A9" stroke-width="4"/>
<line x1="271" y1="-3.40815e-08" x2="271" y2="516" stroke="#3262A9" stroke-width="4"/>
<line x1="642" y1="-3.40815e-08" x2="642" y2="516" stroke="#3262A9" stroke-width="4" stroke-dasharray="8 8"/>
<line x1="1384" y1="-3.40815e-08" x2="1384" y2="516" stroke="#3262A9" stroke-width="4" stroke-dasharray="8 8"/>
<line x1="1778" y1="-3.40815e-08" x2="1778" y2="516" stroke="#3262A9" stroke-width="4" stroke-dasharray="8 8"/>
<line x1="1013" y1="-3.40815e-08" x2="1013" y2="516" stroke="#3262A9" stroke-width="4" stroke-dasharray="8 8"/>
<path d="M144 279L236.665 332.5V439.5L144 493L51.3353 439.5V332.5L144 279Z" fill="#3B9B0E"/>
<path d="M108.456 410.64C104.189 410.64 100.819 409.445 98.344 407.056C95.8693 404.667 94.632 401.381 94.632 397.2V376.08C94.632 371.899 95.8693 368.613 98.344 366.224C100.819 363.835 104.189 362.64 108.456 362.64C112.637 362.64 115.965 363.856 118.44 366.288C120.915 368.677 122.152 371.941 122.152 376.08H116.392C116.392 373.435 115.688 371.387 114.28 369.936C112.915 368.485 110.973 367.76 108.456 367.76C105.939 367.76 103.955 368.485 102.504 369.936C101.096 371.387 100.392 373.413 100.392 376.016V397.2C100.392 399.845 101.096 401.893 102.504 403.344C103.912 404.795 105.896 405.52 108.456 405.52C110.973 405.52 112.915 404.795 114.28 403.344C115.688 401.893 116.392 399.845 116.392 397.2V391.44H106.92V386.32H122.152V397.2C122.152 401.339 120.915 404.624 118.44 407.056C115.965 409.445 112.637 410.64 108.456 410.64ZM133.263 410V363.28H148.303C152.655 363.28 156.111 364.539 158.671 367.056C161.274 369.531 162.575 372.859 162.575 377.04C162.575 381.221 161.274 384.571 158.671 387.088C156.111 389.563 152.655 390.8 148.303 390.8H139.023V410H133.263ZM148.303 385.68C150.82 385.68 152.826 384.912 154.319 383.376C155.855 381.797 156.623 379.685 156.623 377.04C156.623 374.395 155.855 372.304 154.319 370.768C152.826 369.189 150.82 368.4 148.303 368.4H139.023V385.68H148.303ZM184.95 410.64C180.641 410.64 177.313 409.467 174.966 407.12C172.662 404.731 171.51 401.424 171.51 397.2V363.28H177.27V397.2C177.27 399.803 177.91 401.851 179.19 403.344C180.513 404.795 182.433 405.52 184.95 405.52C187.467 405.52 189.366 404.795 190.646 403.344C191.969 401.851 192.63 399.803 192.63 397.2V363.28H198.39V397.2C198.39 401.424 197.238 404.731 194.934 407.12C192.63 409.467 189.302 410.64 184.95 410.64Z" fill="white"/>
<path d="M144 23L236.665 76.5V183.5L144 237L51.3353 183.5V76.5L144 23Z" fill="#C81540"/>
<path d="M108.456 154.64C104.189 154.64 100.819 153.445 98.344 151.056C95.8693 148.667 94.632 145.381 94.632 141.2V120.08C94.632 115.899 95.8693 112.613 98.344 110.224C100.819 107.835 104.189 106.64 108.456 106.64C112.637 106.64 115.965 107.856 118.44 110.288C120.915 112.677 122.152 115.941 122.152 120.08H116.392C116.392 117.435 115.688 115.387 114.28 113.936C112.915 112.485 110.973 111.76 108.456 111.76C105.939 111.76 103.955 112.485 102.504 113.936C101.096 115.387 100.392 117.413 100.392 120.016V141.2C100.392 143.845 101.096 145.893 102.504 147.344C103.912 148.795 105.896 149.52 108.456 149.52C110.973 149.52 112.915 148.795 114.28 147.344C115.688 145.893 116.392 143.845 116.392 141.2H122.152C122.152 145.339 120.915 148.624 118.44 151.056C115.965 153.445 112.637 154.64 108.456 154.64ZM133.263 154V107.28H148.303C152.655 107.28 156.111 108.539 158.671 111.056C161.274 113.531 162.575 116.859 162.575 121.04C162.575 125.221 161.274 128.571 158.671 131.088C156.111 133.563 152.655 134.8 148.303 134.8H139.023V154H133.263ZM148.303 129.68C150.82 129.68 152.826 128.912 154.319 127.376C155.855 125.797 156.623 123.685 156.623 121.04C156.623 118.395 155.855 116.304 154.319 114.768C152.826 113.189 150.82 112.4 148.303 112.4H139.023V129.68H148.303ZM184.95 154.64C180.641 154.64 177.313 153.467 174.966 151.12C172.662 148.731 171.51 145.424 171.51 141.2V107.28H177.27V141.2C177.27 143.803 177.91 145.851 179.19 147.344C180.513 148.795 182.433 149.52 184.95 149.52C187.467 149.52 189.366 148.795 190.646 147.344C191.969 145.851 192.63 143.803 192.63 141.2V107.28H198.39V141.2C198.39 145.424 197.238 148.731 194.934 151.12C192.63 153.467 189.302 154.64 184.95 154.64Z" fill="white"/>
<rect x="322" y="63" width="268" height="133" fill="#C81540"/>
<path d="M384.8 146H368V116.8H384.8V120.04H371.56V129.12H383.4V132.36H371.56V142.76H384.8V146ZM391.584 146V116.8H396.384L405.304 141.8C405.038 138.6 404.904 135.733 404.904 133.2V116.8H408.384V146H403.584L394.704 121C394.944 124.2 395.064 127.067 395.064 129.6V146H391.584ZM424.129 146.4C421.462 146.4 419.355 145.653 417.809 144.16C416.262 142.667 415.489 140.613 415.489 138V124.8C415.489 122.187 416.262 120.133 417.809 118.64C419.355 117.147 421.462 116.4 424.129 116.4C426.742 116.4 428.822 117.16 430.369 118.68C431.915 120.173 432.689 122.213 432.689 124.8H429.089C429.089 123.147 428.649 121.867 427.769 120.96C426.915 120.053 425.702 119.6 424.129 119.6C422.555 119.6 421.315 120.053 420.409 120.96C419.529 121.867 419.089 123.133 419.089 124.76V138C419.089 139.653 419.529 140.933 420.409 141.84C421.289 142.747 422.529 143.2 424.129 143.2C425.702 143.2 426.915 142.747 427.769 141.84C428.649 140.933 429.089 139.653 429.089 138H432.689C432.689 140.587 431.915 142.64 430.369 144.16C428.822 145.653 426.742 146.4 424.129 146.4ZM447.953 146.4C445.34 146.4 443.273 145.653 441.753 144.16C440.233 142.667 439.473 140.613 439.473 138V124.8C439.473 122.187 440.233 120.133 441.753 118.64C443.273 117.147 445.34 116.4 447.953 116.4C450.566 116.4 452.633 117.147 454.153 118.64C455.673 120.133 456.433 122.173 456.433 124.76V138C456.433 140.613 455.673 142.667 454.153 144.16C452.633 145.653 450.566 146.4 447.953 146.4ZM447.953 143.2C449.526 143.2 450.726 142.76 451.553 141.88C452.406 140.973 452.833 139.68 452.833 138V124.8C452.833 123.12 452.406 121.84 451.553 120.96C450.726 120.053 449.526 119.6 447.953 119.6C446.38 119.6 445.166 120.053 444.313 120.96C443.486 121.84 443.073 123.12 443.073 124.8V138C443.073 139.68 443.486 140.973 444.313 141.88C445.166 142.76 446.38 143.2 447.953 143.2ZM463.618 146V116.8H471.178C473.044 116.8 474.671 117.16 476.058 117.88C477.444 118.6 478.511 119.627 479.258 120.96C480.031 122.267 480.418 123.8 480.418 125.56V137.2C480.418 139.893 479.578 142.04 477.898 143.64C476.244 145.213 474.004 146 471.178 146H463.618ZM471.178 142.8C472.938 142.8 474.311 142.307 475.298 141.32C476.311 140.333 476.818 138.96 476.818 137.2V125.56C476.818 123.827 476.311 122.467 475.298 121.48C474.311 120.493 472.938 120 471.178 120H467.218V142.8H471.178ZM504.722 146H487.922V116.8H504.722V120.04H491.482V129.12H503.322V132.36H491.482V142.76H504.722V146ZM532.691 146L540.531 130.92L533.211 116.8H539.811L542.851 123.2C543.144 123.787 543.384 124.32 543.571 124.8C543.784 125.28 543.917 125.627 543.971 125.84C544.024 125.627 544.144 125.28 544.331 124.8C544.517 124.32 544.744 123.787 545.011 123.2L548.131 116.8H554.571L547.251 130.92L555.091 146H548.491L544.971 138.8C544.704 138.213 544.464 137.667 544.251 137.16C544.037 136.653 543.877 136.267 543.771 136C543.691 136.267 543.557 136.653 543.371 137.16C543.184 137.667 542.944 138.213 542.651 138.8L539.131 146H532.691Z" fill="white"/>
<rect x="692" y="319" width="268" height="133" fill="#3B9B0E"/>
<path d="M738.8 402H722V372.8H738.8V376.04H725.56V385.12H737.4V388.36H725.56V398.76H738.8V402ZM743.584 402L751.984 387.2L744.024 372.8H748.184L752.704 381.44L754.064 384.12C754.518 383.133 754.958 382.24 755.384 381.44L759.984 372.8H763.944L755.984 386.96L764.384 402H760.264L755.264 392.72C754.838 391.947 754.398 391.04 753.944 390C753.464 391.013 753.024 391.907 752.624 392.68L747.584 402H743.584ZM786.769 402H769.969V372.8H786.769V376.04H773.529V385.12H785.369V388.36H773.529V398.76H786.769V402ZM802.113 402.4C799.446 402.4 797.34 401.653 795.793 400.16C794.246 398.667 793.473 396.613 793.473 394V380.8C793.473 378.187 794.246 376.133 795.793 374.64C797.34 373.147 799.446 372.4 802.113 372.4C804.726 372.4 806.806 373.16 808.353 374.68C809.9 376.173 810.673 378.213 810.673 380.8H807.073C807.073 379.147 806.633 377.867 805.753 376.96C804.9 376.053 803.686 375.6 802.113 375.6C800.54 375.6 799.3 376.053 798.393 376.96C797.513 377.867 797.073 379.133 797.073 380.76V394C797.073 395.653 797.513 396.933 798.393 397.84C799.273 398.747 800.513 399.2 802.113 399.2C803.686 399.2 804.9 398.747 805.753 397.84C806.633 396.933 807.073 395.653 807.073 394H810.673C810.673 396.587 809.9 398.64 808.353 400.16C806.806 401.653 804.726 402.4 802.113 402.4ZM825.938 402.4C823.244 402.4 821.164 401.667 819.698 400.2C818.258 398.707 817.538 396.64 817.538 394V372.8H821.138V394C821.138 395.627 821.538 396.907 822.338 397.84C823.164 398.747 824.364 399.2 825.938 399.2C827.511 399.2 828.698 398.747 829.498 397.84C830.324 396.907 830.738 395.627 830.738 394V372.8H834.338V394C834.338 396.64 833.618 398.707 832.178 400.2C830.738 401.667 828.658 402.4 825.938 402.4ZM851.722 402H848.122V376.04H840.122V372.76H859.722V376.04H851.722V402ZM882.706 402H865.906V372.8H882.706V376.04H869.466V385.12H881.306V388.36H869.466V398.76H882.706V402ZM910.675 402L918.515 386.92L911.195 372.8H917.795L920.835 379.2C921.128 379.787 921.368 380.32 921.555 380.8C921.768 381.28 921.902 381.627 921.955 381.84C922.008 381.627 922.128 381.28 922.315 380.8C922.502 380.32 922.728 379.787 922.995 379.2L926.115 372.8H932.555L925.235 386.92L933.075 402H926.475L922.955 394.8C922.688 394.213 922.448 393.667 922.235 393.16C922.022 392.653 921.862 392.267 921.755 392C921.675 392.267 921.542 392.653 921.355 393.16C921.168 393.667 920.928 394.213 920.635 394.8L917.115 402H910.675Z" fill="white"/>
<rect x="1445" y="319" width="268" height="133" fill="#3B9B0E"/>
<path d="M1491.8 402H1475V372.8H1491.8V376.04H1478.56V385.12H1490.4V388.36H1478.56V398.76H1491.8V402ZM1496.58 402L1504.98 387.2L1497.02 372.8H1501.18L1505.7 381.44L1507.06 384.12C1507.52 383.133 1507.96 382.24 1508.38 381.44L1512.98 372.8H1516.94L1508.98 386.96L1517.38 402H1513.26L1508.26 392.72C1507.84 391.947 1507.4 391.04 1506.94 390C1506.46 391.013 1506.02 391.907 1505.62 392.68L1500.58 402H1496.58ZM1539.77 402H1522.97V372.8H1539.77V376.04H1526.53V385.12H1538.37V388.36H1526.53V398.76H1539.77V402ZM1555.11 402.4C1552.45 402.4 1550.34 401.653 1548.79 400.16C1547.25 398.667 1546.47 396.613 1546.47 394V380.8C1546.47 378.187 1547.25 376.133 1548.79 374.64C1550.34 373.147 1552.45 372.4 1555.11 372.4C1557.73 372.4 1559.81 373.16 1561.35 374.68C1562.9 376.173 1563.67 378.213 1563.67 380.8H1560.07C1560.07 379.147 1559.63 377.867 1558.75 376.96C1557.9 376.053 1556.69 375.6 1555.11 375.6C1553.54 375.6 1552.3 376.053 1551.39 376.96C1550.51 377.867 1550.07 379.133 1550.07 380.76V394C1550.07 395.653 1550.51 396.933 1551.39 397.84C1552.27 398.747 1553.51 399.2 1555.11 399.2C1556.69 399.2 1557.9 398.747 1558.75 397.84C1559.63 396.933 1560.07 395.653 1560.07 394H1563.67C1563.67 396.587 1562.9 398.64 1561.35 400.16C1559.81 401.653 1557.73 402.4 1555.11 402.4ZM1578.94 402.4C1576.24 402.4 1574.16 401.667 1572.7 400.2C1571.26 398.707 1570.54 396.64 1570.54 394V372.8H1574.14V394C1574.14 395.627 1574.54 396.907 1575.34 397.84C1576.16 398.747 1577.36 399.2 1578.94 399.2C1580.51 399.2 1581.7 398.747 1582.5 397.84C1583.32 396.907 1583.74 395.627 1583.74 394V372.8H1587.34V394C1587.34 396.64 1586.62 398.707 1585.18 400.2C1583.74 401.667 1581.66 402.4 1578.94 402.4ZM1604.72 402H1601.12V376.04H1593.12V372.76H1612.72V376.04H1604.72V402ZM1635.71 402H1618.91V372.8H1635.71V376.04H1622.47V385.12H1634.31V388.36H1622.47V398.76H1635.71V402ZM1665.88 402V396.4L1676.6 378.4H1666.2V372.8H1683.43V378.4L1672.68 396.4H1683.88V402H1665.88Z" fill="white"/>
<rect x="1063" y="319" width="268" height="133" fill="#3B9B0E"/>
<path d="M1109.8 402H1093V372.8H1109.8V376.04H1096.56V385.12H1108.4V388.36H1096.56V398.76H1109.8V402ZM1114.58 402L1122.98 387.2L1115.02 372.8H1119.18L1123.7 381.44L1125.06 384.12C1125.52 383.133 1125.96 382.24 1126.38 381.44L1130.98 372.8H1134.94L1126.98 386.96L1135.38 402H1131.26L1126.26 392.72C1125.84 391.947 1125.4 391.04 1124.94 390C1124.46 391.013 1124.02 391.907 1123.62 392.68L1118.58 402H1114.58ZM1157.77 402H1140.97V372.8H1157.77V376.04H1144.53V385.12H1156.37V388.36H1144.53V398.76H1157.77V402ZM1173.11 402.4C1170.45 402.4 1168.34 401.653 1166.79 400.16C1165.25 398.667 1164.47 396.613 1164.47 394V380.8C1164.47 378.187 1165.25 376.133 1166.79 374.64C1168.34 373.147 1170.45 372.4 1173.11 372.4C1175.73 372.4 1177.81 373.16 1179.35 374.68C1180.9 376.173 1181.67 378.213 1181.67 380.8H1178.07C1178.07 379.147 1177.63 377.867 1176.75 376.96C1175.9 376.053 1174.69 375.6 1173.11 375.6C1171.54 375.6 1170.3 376.053 1169.39 376.96C1168.51 377.867 1168.07 379.133 1168.07 380.76V394C1168.07 395.653 1168.51 396.933 1169.39 397.84C1170.27 398.747 1171.51 399.2 1173.11 399.2C1174.69 399.2 1175.9 398.747 1176.75 397.84C1177.63 396.933 1178.07 395.653 1178.07 394H1181.67C1181.67 396.587 1180.9 398.64 1179.35 400.16C1177.81 401.653 1175.73 402.4 1173.11 402.4ZM1196.94 402.4C1194.24 402.4 1192.16 401.667 1190.7 400.2C1189.26 398.707 1188.54 396.64 1188.54 394V372.8H1192.14V394C1192.14 395.627 1192.54 396.907 1193.34 397.84C1194.16 398.747 1195.36 399.2 1196.94 399.2C1198.51 399.2 1199.7 398.747 1200.5 397.84C1201.32 396.907 1201.74 395.627 1201.74 394V372.8H1205.34V394C1205.34 396.64 1204.62 398.707 1203.18 400.2C1201.74 401.667 1199.66 402.4 1196.94 402.4ZM1222.72 402H1219.12V376.04H1211.12V372.76H1230.72V376.04H1222.72V402ZM1253.71 402H1236.91V372.8H1253.71V376.04H1240.47V385.12H1252.31V388.36H1240.47V398.76H1253.71V402ZM1289.88 402V391.6L1281.48 372.8H1287.76L1291.43 381.6C1291.81 382.48 1292.13 383.413 1292.4 384.4C1292.69 385.387 1292.89 386.187 1293 386.8C1293.13 386.187 1293.32 385.387 1293.56 384.4C1293.82 383.413 1294.13 382.48 1294.48 381.6L1298.04 372.8H1304.28L1295.88 391.6V402H1289.88Z" fill="white"/>
<rect x="1063" y="63" width="268" height="133" fill="#C81540"/>
<path d="M1125.8 146H1109V116.8H1125.8V120.04H1112.56V129.12H1124.4V132.36H1112.56V142.76H1125.8V146ZM1132.58 146V116.8H1137.38L1146.3 141.8C1146.04 138.6 1145.9 135.733 1145.9 133.2V116.8H1149.38V146H1144.58L1135.7 121C1135.94 124.2 1136.06 127.067 1136.06 129.6V146H1132.58ZM1165.13 146.4C1162.46 146.4 1160.36 145.653 1158.81 144.16C1157.26 142.667 1156.49 140.613 1156.49 138V124.8C1156.49 122.187 1157.26 120.133 1158.81 118.64C1160.36 117.147 1162.46 116.4 1165.13 116.4C1167.74 116.4 1169.82 117.16 1171.37 118.68C1172.92 120.173 1173.69 122.213 1173.69 124.8H1170.09C1170.09 123.147 1169.65 121.867 1168.77 120.96C1167.92 120.053 1166.7 119.6 1165.13 119.6C1163.56 119.6 1162.32 120.053 1161.41 120.96C1160.53 121.867 1160.09 123.133 1160.09 124.76V138C1160.09 139.653 1160.53 140.933 1161.41 141.84C1162.29 142.747 1163.53 143.2 1165.13 143.2C1166.7 143.2 1167.92 142.747 1168.77 141.84C1169.65 140.933 1170.09 139.653 1170.09 138H1173.69C1173.69 140.587 1172.92 142.64 1171.37 144.16C1169.82 145.653 1167.74 146.4 1165.13 146.4ZM1188.95 146.4C1186.34 146.4 1184.27 145.653 1182.75 144.16C1181.23 142.667 1180.47 140.613 1180.47 138V124.8C1180.47 122.187 1181.23 120.133 1182.75 118.64C1184.27 117.147 1186.34 116.4 1188.95 116.4C1191.57 116.4 1193.63 117.147 1195.15 118.64C1196.67 120.133 1197.43 122.173 1197.43 124.76V138C1197.43 140.613 1196.67 142.667 1195.15 144.16C1193.63 145.653 1191.57 146.4 1188.95 146.4ZM1188.95 143.2C1190.53 143.2 1191.73 142.76 1192.55 141.88C1193.41 140.973 1193.83 139.68 1193.83 138V124.8C1193.83 123.12 1193.41 121.84 1192.55 120.96C1191.73 120.053 1190.53 119.6 1188.95 119.6C1187.38 119.6 1186.17 120.053 1185.31 120.96C1184.49 121.84 1184.07 123.12 1184.07 124.8V138C1184.07 139.68 1184.49 140.973 1185.31 141.88C1186.17 142.76 1187.38 143.2 1188.95 143.2ZM1204.62 146V116.8H1212.18C1214.04 116.8 1215.67 117.16 1217.06 117.88C1218.44 118.6 1219.51 119.627 1220.26 120.96C1221.03 122.267 1221.42 123.8 1221.42 125.56V137.2C1221.42 139.893 1220.58 142.04 1218.9 143.64C1217.24 145.213 1215 146 1212.18 146H1204.62ZM1212.18 142.8C1213.94 142.8 1215.31 142.307 1216.3 141.32C1217.31 140.333 1217.82 138.96 1217.82 137.2V125.56C1217.82 123.827 1217.31 122.467 1216.3 121.48C1215.31 120.493 1213.94 120 1212.18 120H1208.22V142.8H1212.18ZM1245.72 146H1228.92V116.8H1245.72V120.04H1232.48V129.12H1244.32V132.36H1232.48V142.76H1245.72V146ZM1275.89 146V140.4L1286.61 122.4H1276.21V116.8H1293.45V122.4L1282.69 140.4H1293.89V146H1275.89Z" fill="white"/>
<rect x="692" y="63" width="268" height="133" fill="#C81540"/>
<path d="M754.8 143H738V113.8H754.8V117.04H741.56V126.12H753.4V129.36H741.56V139.76H754.8V143ZM761.584 143V113.8H766.384L775.304 138.8C775.038 135.6 774.904 132.733 774.904 130.2V113.8H778.384V143H773.584L764.704 118C764.944 121.2 765.064 124.067 765.064 126.6V143H761.584ZM794.129 143.4C791.462 143.4 789.355 142.653 787.809 141.16C786.262 139.667 785.489 137.613 785.489 135V121.8C785.489 119.187 786.262 117.133 787.809 115.64C789.355 114.147 791.462 113.4 794.129 113.4C796.742 113.4 798.822 114.16 800.369 115.68C801.915 117.173 802.689 119.213 802.689 121.8H799.089C799.089 120.147 798.649 118.867 797.769 117.96C796.915 117.053 795.702 116.6 794.129 116.6C792.555 116.6 791.315 117.053 790.409 117.96C789.529 118.867 789.089 120.133 789.089 121.76V135C789.089 136.653 789.529 137.933 790.409 138.84C791.289 139.747 792.529 140.2 794.129 140.2C795.702 140.2 796.915 139.747 797.769 138.84C798.649 137.933 799.089 136.653 799.089 135H802.689C802.689 137.587 801.915 139.64 800.369 141.16C798.822 142.653 796.742 143.4 794.129 143.4ZM817.953 143.4C815.34 143.4 813.273 142.653 811.753 141.16C810.233 139.667 809.473 137.613 809.473 135V121.8C809.473 119.187 810.233 117.133 811.753 115.64C813.273 114.147 815.34 113.4 817.953 113.4C820.566 113.4 822.633 114.147 824.153 115.64C825.673 117.133 826.433 119.173 826.433 121.76V135C826.433 137.613 825.673 139.667 824.153 141.16C822.633 142.653 820.566 143.4 817.953 143.4ZM817.953 140.2C819.526 140.2 820.726 139.76 821.553 138.88C822.406 137.973 822.833 136.68 822.833 135V121.8C822.833 120.12 822.406 118.84 821.553 117.96C820.726 117.053 819.526 116.6 817.953 116.6C816.38 116.6 815.166 117.053 814.313 117.96C813.486 118.84 813.073 120.12 813.073 121.8V135C813.073 136.68 813.486 137.973 814.313 138.88C815.166 139.76 816.38 140.2 817.953 140.2ZM833.618 143V113.8H841.178C843.044 113.8 844.671 114.16 846.058 114.88C847.444 115.6 848.511 116.627 849.258 117.96C850.031 119.267 850.418 120.8 850.418 122.56V134.2C850.418 136.893 849.578 139.04 847.898 140.64C846.244 142.213 844.004 143 841.178 143H833.618ZM841.178 139.8C842.938 139.8 844.311 139.307 845.298 138.32C846.311 137.333 846.818 135.96 846.818 134.2V122.56C846.818 120.827 846.311 119.467 845.298 118.48C844.311 117.493 842.938 117 841.178 117H837.218V139.8H841.178ZM874.722 143H857.922V113.8H874.722V117.04H861.482V126.12H873.322V129.36H861.482V139.76H874.722V143ZM910.891 143V132.6L902.491 113.8H908.771L912.451 122.6C912.824 123.48 913.144 124.413 913.411 125.4C913.704 126.387 913.904 127.187 914.011 127.8C914.144 127.187 914.331 126.387 914.571 125.4C914.837 124.413 915.144 123.48 915.491 122.6L919.051 113.8H925.291L916.891 132.6V143H910.891Z" fill="white"/>
</svg>
