<svg width="2054" height="828" viewBox="0 0 2054 828" fill="none" xmlns="http://www.w3.org/2000/svg">
<rect x="2" y="356" width="396" height="196" rx="30" fill="#D9D9D9" stroke="#3B9B0E" stroke-width="4"/>
<path d="M144.944 465V441.64H150.992C152.485 441.64 153.787 441.928 154.896 442.504C156.005 443.08 156.859 443.901 157.456 444.968C158.075 446.013 158.384 447.24 158.384 448.648V457.96C158.384 460.115 157.712 461.832 156.368 463.112C155.045 464.371 153.253 465 150.992 465H144.944ZM150.992 462.44C152.4 462.44 153.499 462.045 154.288 461.256C155.099 460.467 155.504 459.368 155.504 457.96V448.648C155.504 447.261 155.099 446.173 154.288 445.384C153.499 444.595 152.4 444.2 150.992 444.2H147.824V462.44H150.992ZM177.572 456.904H166.82V458.6C166.82 460.008 167.15 461.075 167.812 461.8C168.494 462.525 169.486 462.888 170.788 462.888C173.028 462.888 174.308 462.099 174.628 460.52H177.508C177.316 461.992 176.612 463.165 175.396 464.04C174.18 464.893 172.644 465.32 170.788 465.32C168.718 465.32 167.065 464.712 165.828 463.496C164.612 462.28 164.004 460.648 164.004 458.6V453.8C164.004 451.752 164.612 450.12 165.828 448.904C167.065 447.688 168.718 447.08 170.788 447.08C172.857 447.08 174.5 447.688 175.716 448.904C176.953 450.12 177.572 451.752 177.572 453.8V456.904ZM166.82 454.728H174.756V453.8C174.756 452.392 174.414 451.325 173.732 450.6C173.07 449.853 172.089 449.48 170.788 449.48C169.486 449.48 168.494 449.853 167.812 450.6C167.15 451.325 166.82 452.392 166.82 453.8V454.728ZM188.023 465L182.295 447.4H185.239L188.983 459.24C189.367 460.456 189.719 461.64 190.039 462.792C190.359 461.64 190.711 460.456 191.095 459.24L194.743 447.4H197.655L191.927 465H188.023ZM209.163 444.36C208.523 444.36 208.011 444.189 207.627 443.848C207.264 443.507 207.083 443.048 207.083 442.472C207.083 441.896 207.275 441.427 207.659 441.064C208.043 440.701 208.544 440.52 209.163 440.52H209.803C210.421 440.52 210.923 440.701 211.307 441.064C211.691 441.427 211.883 441.896 211.883 442.472C211.883 443.048 211.691 443.507 211.307 443.848C210.923 444.189 210.421 444.36 209.803 444.36H209.163ZM217.163 465H202.123V462.376H208.363V450.024H202.923V447.4H211.243V462.376H217.163V465ZM228.478 465.32C226.345 465.32 224.659 464.723 223.422 463.528C222.185 462.333 221.566 460.691 221.566 458.6V453.8C221.566 451.709 222.185 450.067 223.422 448.872C224.659 447.677 226.345 447.08 228.478 447.08C230.505 447.08 232.137 447.624 233.374 448.712C234.611 449.8 235.262 451.283 235.326 453.16H232.446C232.382 452.051 231.998 451.187 231.294 450.568C230.611 449.949 229.673 449.64 228.478 449.64C227.219 449.64 226.227 450.003 225.502 450.728C224.798 451.453 224.446 452.467 224.446 453.768V458.6C224.446 459.923 224.798 460.947 225.502 461.672C226.206 462.397 227.198 462.76 228.478 462.76C229.673 462.76 230.611 462.451 231.294 461.832C231.998 461.213 232.382 460.349 232.446 459.24H235.326C235.262 461.117 234.611 462.6 233.374 463.688C232.137 464.776 230.505 465.32 228.478 465.32ZM254.322 456.904H243.57V458.6C243.57 460.008 243.9 461.075 244.562 461.8C245.244 462.525 246.236 462.888 247.538 462.888C249.778 462.888 251.058 462.099 251.378 460.52H254.258C254.066 461.992 253.362 463.165 252.146 464.04C250.93 464.893 249.394 465.32 247.538 465.32C245.468 465.32 243.815 464.712 242.578 463.496C241.362 462.28 240.754 460.648 240.754 458.6V453.8C240.754 451.752 241.362 450.12 242.578 448.904C243.815 447.688 245.468 447.08 247.538 447.08C249.607 447.08 251.25 447.688 252.466 448.904C253.703 450.12 254.322 451.752 254.322 453.8V456.904ZM243.57 454.728H251.506V453.8C251.506 452.392 251.164 451.325 250.482 450.6C249.82 449.853 248.839 449.48 247.538 449.48C246.236 449.48 245.244 449.853 244.562 450.6C243.9 451.325 243.57 452.392 243.57 453.8V454.728Z" fill="black"/>
<rect x="526" y="356" width="396" height="196" rx="30" fill="#D9D9D9" stroke="#3B9B0E" stroke-width="4"/>
<path d="M612.728 465.32C610.595 465.32 608.909 464.723 607.672 463.528C606.435 462.333 605.816 460.691 605.816 458.6V448.04C605.816 445.949 606.435 444.307 607.672 443.112C608.909 441.917 610.595 441.32 612.728 441.32C614.819 441.32 616.483 441.928 617.72 443.144C618.957 444.339 619.576 445.971 619.576 448.04H616.696C616.696 446.717 616.344 445.693 615.64 444.968C614.957 444.243 613.987 443.88 612.728 443.88C611.469 443.88 610.477 444.243 609.752 444.968C609.048 445.693 608.696 446.707 608.696 448.008V458.6C608.696 459.923 609.048 460.947 609.752 461.672C610.456 462.397 611.448 462.76 612.728 462.76C613.987 462.76 614.957 462.397 615.64 461.672C616.344 460.947 616.696 459.923 616.696 458.6H619.576C619.576 460.669 618.957 462.312 617.72 463.528C616.483 464.723 614.819 465.32 612.728 465.32ZM631.788 465.32C629.697 465.32 628.044 464.723 626.828 463.528C625.612 462.333 625.004 460.691 625.004 458.6V453.8C625.004 451.709 625.612 450.067 626.828 448.872C628.044 447.677 629.697 447.08 631.788 447.08C633.878 447.08 635.532 447.677 636.748 448.872C637.964 450.067 638.572 451.699 638.572 453.768V458.6C638.572 460.691 637.964 462.333 636.748 463.528C635.532 464.723 633.878 465.32 631.788 465.32ZM631.788 462.76C633.046 462.76 634.006 462.408 634.668 461.704C635.35 460.979 635.692 459.944 635.692 458.6V453.8C635.692 452.456 635.35 451.432 634.668 450.728C634.006 450.003 633.046 449.64 631.788 449.64C630.529 449.64 629.558 450.003 628.876 450.728C628.214 451.432 627.884 452.456 627.884 453.8V458.6C627.884 459.944 628.214 460.979 628.876 461.704C629.558 462.408 630.529 462.76 631.788 462.76ZM654.975 447.08C656.063 447.08 656.916 447.496 657.535 448.328C658.154 449.139 658.463 450.237 658.463 451.624V465H655.807V451.592C655.807 450.867 655.647 450.301 655.327 449.896C655.028 449.491 654.58 449.288 653.983 449.288C653.407 449.288 652.948 449.491 652.607 449.896C652.287 450.28 652.127 450.835 652.127 451.56V465H649.823V451.592C649.823 450.867 649.652 450.301 649.311 449.896C648.991 449.491 648.532 449.288 647.935 449.288C647.359 449.288 646.911 449.491 646.591 449.896C646.292 450.28 646.143 450.835 646.143 451.56V465H643.487V447.4H646.015V449.512H646.207C646.335 448.765 646.644 448.179 647.135 447.752C647.647 447.304 648.287 447.08 649.055 447.08C649.78 447.08 650.388 447.293 650.879 447.72C651.37 448.125 651.722 448.723 651.935 449.512H652.063C652.212 448.765 652.543 448.179 653.055 447.752C653.567 447.304 654.207 447.08 654.975 447.08ZM674.163 447.08C675.251 447.08 676.104 447.496 676.722 448.328C677.341 449.139 677.651 450.237 677.651 451.624V465H674.995V451.592C674.995 450.867 674.835 450.301 674.515 449.896C674.216 449.491 673.768 449.288 673.171 449.288C672.595 449.288 672.136 449.491 671.795 449.896C671.475 450.28 671.315 450.835 671.315 451.56V465H669.01V451.592C669.01 450.867 668.84 450.301 668.499 449.896C668.179 449.491 667.72 449.288 667.123 449.288C666.547 449.288 666.099 449.491 665.779 449.896C665.48 450.28 665.331 450.835 665.331 451.56V465H662.674V447.4H665.203V449.512H665.395C665.523 448.765 665.832 448.179 666.323 447.752C666.835 447.304 667.475 447.08 668.243 447.08C668.968 447.08 669.576 447.293 670.067 447.72C670.557 448.125 670.909 448.723 671.123 449.512H671.251C671.4 448.765 671.731 448.179 672.243 447.752C672.755 447.304 673.395 447.08 674.163 447.08ZM689.414 447.112C691.462 447.112 693.083 447.635 694.278 448.68C695.473 449.704 696.07 451.112 696.07 452.904V465H693.254V461.64H693.222C693.137 462.749 692.582 463.645 691.558 464.328C690.534 464.989 689.254 465.32 687.718 465.32C685.926 465.32 684.497 464.851 683.43 463.912C682.363 462.973 681.83 461.704 681.83 460.104C681.83 458.419 682.353 457.096 683.398 456.136C684.465 455.176 685.915 454.696 687.75 454.696H693.19V453C693.19 451.933 692.849 451.112 692.166 450.536C691.505 449.939 690.577 449.64 689.382 449.64C688.337 449.64 687.473 449.853 686.79 450.28C686.107 450.707 685.713 451.293 685.606 452.04H682.726C682.918 450.547 683.622 449.352 684.838 448.456C686.054 447.56 687.579 447.112 689.414 447.112ZM688.39 463.048C689.798 463.048 690.95 462.717 691.846 462.056C692.742 461.373 693.19 460.488 693.19 459.4V456.904H687.814C686.854 456.904 686.097 457.171 685.542 457.704C684.987 458.237 684.71 458.973 684.71 459.912C684.71 460.893 685.041 461.661 685.702 462.216C686.363 462.771 687.259 463.048 688.39 463.048ZM709.466 447.08C711.236 447.08 712.644 447.635 713.69 448.744C714.735 449.832 715.258 451.304 715.258 453.16V465H712.378V453.48C712.378 452.243 712.036 451.272 711.354 450.568C710.692 449.864 709.786 449.512 708.634 449.512C707.418 449.512 706.468 449.896 705.786 450.664C705.103 451.411 704.762 452.456 704.762 453.8V465H701.882V447.4H704.762V450.76H704.794C704.943 449.587 705.423 448.68 706.234 448.04C707.044 447.4 708.122 447.08 709.466 447.08ZM731.501 441.64H734.381V465H731.501V461.64H731.469C731.32 462.792 730.818 463.699 729.965 464.36C729.112 465 728.024 465.32 726.701 465.32C724.93 465.32 723.522 464.733 722.477 463.56C721.453 462.387 720.941 460.797 720.941 458.792V453.64C720.941 451.613 721.453 450.013 722.477 448.84C723.522 447.667 724.93 447.08 726.701 447.08C728.002 447.08 729.08 447.411 729.933 448.072C730.786 448.733 731.298 449.629 731.469 450.76H731.565L731.501 446.76V441.64ZM731.501 453.8C731.501 452.477 731.16 451.443 730.477 450.696C729.794 449.949 728.856 449.576 727.661 449.576C726.445 449.576 725.496 449.949 724.813 450.696C724.152 451.421 723.821 452.456 723.821 453.8V458.6C723.821 459.944 724.152 460.989 724.813 461.736C725.496 462.461 726.445 462.824 727.661 462.824C728.856 462.824 729.794 462.451 730.477 461.704C731.16 460.957 731.501 459.923 731.501 458.6V453.8ZM769.876 447.4H772.756V470.76H769.876V465.64L769.94 461.64H769.844C769.673 462.771 769.161 463.667 768.308 464.328C767.455 464.989 766.377 465.32 765.076 465.32C763.305 465.32 761.897 464.733 760.852 463.56C759.828 462.387 759.316 460.787 759.316 458.76V453.608C759.316 451.603 759.828 450.013 760.852 448.84C761.897 447.667 763.305 447.08 765.076 447.08C766.399 447.08 767.487 447.411 768.34 448.072C769.193 448.712 769.695 449.608 769.844 450.76H769.876V447.4ZM769.876 453.8C769.876 452.477 769.535 451.443 768.852 450.696C768.169 449.949 767.231 449.576 766.036 449.576C764.82 449.576 763.871 449.949 763.188 450.696C762.527 451.421 762.196 452.456 762.196 453.8V458.6C762.196 459.944 762.527 460.989 763.188 461.736C763.871 462.461 764.82 462.824 766.036 462.824C767.231 462.824 768.169 462.451 768.852 461.704C769.535 460.957 769.876 459.923 769.876 458.6V453.8ZM785.256 465.32C783.229 465.32 781.608 464.712 780.391 463.496C779.176 462.28 778.568 460.648 778.568 458.6V447.4H781.448V458.6C781.448 459.923 781.778 460.957 782.44 461.704C783.122 462.429 784.061 462.792 785.256 462.792C786.472 462.792 787.421 462.429 788.104 461.704C788.786 460.957 789.128 459.923 789.128 458.6V447.4H792.008V458.6C792.008 460.648 791.389 462.28 790.152 463.496C788.936 464.712 787.304 465.32 785.256 465.32ZM811.259 456.904H800.507V458.6C800.507 460.008 800.838 461.075 801.499 461.8C802.182 462.525 803.174 462.888 804.475 462.888C806.715 462.888 807.995 462.099 808.315 460.52H811.195C811.003 461.992 810.299 463.165 809.083 464.04C807.867 464.893 806.331 465.32 804.475 465.32C802.406 465.32 800.752 464.712 799.515 463.496C798.299 462.28 797.691 460.648 797.691 458.6V453.8C797.691 451.752 798.299 450.12 799.515 448.904C800.752 447.688 802.406 447.08 804.475 447.08C806.544 447.08 808.187 447.688 809.403 448.904C810.64 450.12 811.259 451.752 811.259 453.8V456.904ZM800.507 454.728H808.443V453.8C808.443 452.392 808.102 451.325 807.419 450.6C806.758 449.853 805.776 449.48 804.475 449.48C803.174 449.48 802.182 449.853 801.499 450.6C800.838 451.325 800.507 452.392 800.507 453.8V454.728ZM823.631 465.32C821.604 465.32 819.983 464.712 818.766 463.496C817.551 462.28 816.943 460.648 816.943 458.6V447.4H819.823V458.6C819.823 459.923 820.153 460.957 820.815 461.704C821.497 462.429 822.436 462.792 823.631 462.792C824.847 462.792 825.796 462.429 826.479 461.704C827.161 460.957 827.503 459.923 827.503 458.6V447.4H830.383V458.6C830.383 460.648 829.764 462.28 828.527 463.496C827.311 464.712 825.679 465.32 823.631 465.32ZM849.634 456.904H838.882V458.6C838.882 460.008 839.213 461.075 839.874 461.8C840.557 462.525 841.549 462.888 842.85 462.888C845.09 462.888 846.37 462.099 846.69 460.52H849.57C849.378 461.992 848.674 463.165 847.458 464.04C846.242 464.893 844.706 465.32 842.85 465.32C840.781 465.32 839.127 464.712 837.89 463.496C836.674 462.28 836.066 460.648 836.066 458.6V453.8C836.066 451.752 836.674 450.12 837.89 448.904C839.127 447.688 840.781 447.08 842.85 447.08C844.919 447.08 846.562 447.688 847.778 448.904C849.015 450.12 849.634 451.752 849.634 453.8V456.904ZM838.882 454.728H846.818V453.8C846.818 452.392 846.477 451.325 845.794 450.6C845.133 449.853 844.151 449.48 842.85 449.48C841.549 449.48 840.557 449.853 839.874 450.6C839.213 451.325 838.882 452.392 838.882 453.8V454.728Z" fill="black"/>
<rect x="1091" y="316" width="396" height="196" rx="30" fill="#D9D9D9" stroke="#3B9B0E" stroke-width="4"/>
<rect x="1073" y="336" width="396" height="196" rx="30" fill="#D9D9D9" stroke="#3B9B0E" stroke-width="4"/>
<rect x="1050" y="356" width="396" height="196" rx="30" fill="#D9D9D9" stroke="#3B9B0E" stroke-width="4"/>
<path d="M1134.73 465.32C1132.59 465.32 1130.91 464.723 1129.67 463.528C1128.43 462.333 1127.82 460.691 1127.82 458.6V448.04C1127.82 445.949 1128.43 444.307 1129.67 443.112C1130.91 441.917 1132.59 441.32 1134.73 441.32C1136.82 441.32 1138.48 441.928 1139.72 443.144C1140.96 444.339 1141.58 445.971 1141.58 448.04H1138.7C1138.7 446.717 1138.34 445.693 1137.64 444.968C1136.96 444.243 1135.99 443.88 1134.73 443.88C1133.47 443.88 1132.48 444.243 1131.75 444.968C1131.05 445.693 1130.7 446.707 1130.7 448.008V458.6C1130.7 459.923 1131.05 460.947 1131.75 461.672C1132.46 462.397 1133.45 462.76 1134.73 462.76C1135.99 462.76 1136.96 462.397 1137.64 461.672C1138.34 460.947 1138.7 459.923 1138.7 458.6H1141.58C1141.58 460.669 1140.96 462.312 1139.72 463.528C1138.48 464.723 1136.82 465.32 1134.73 465.32ZM1153.79 465.32C1151.7 465.32 1150.04 464.723 1148.83 463.528C1147.61 462.333 1147 460.691 1147 458.6V453.8C1147 451.709 1147.61 450.067 1148.83 448.872C1150.04 447.677 1151.7 447.08 1153.79 447.08C1155.88 447.08 1157.53 447.677 1158.75 448.872C1159.96 450.067 1160.57 451.699 1160.57 453.768V458.6C1160.57 460.691 1159.96 462.333 1158.75 463.528C1157.53 464.723 1155.88 465.32 1153.79 465.32ZM1153.79 462.76C1155.05 462.76 1156.01 462.408 1156.67 461.704C1157.35 460.979 1157.69 459.944 1157.69 458.6V453.8C1157.69 452.456 1157.35 451.432 1156.67 450.728C1156.01 450.003 1155.05 449.64 1153.79 449.64C1152.53 449.64 1151.56 450.003 1150.88 450.728C1150.21 451.432 1149.88 452.456 1149.88 453.8V458.6C1149.88 459.944 1150.21 460.979 1150.88 461.704C1151.56 462.408 1152.53 462.76 1153.79 462.76ZM1176.98 447.08C1178.06 447.08 1178.92 447.496 1179.53 448.328C1180.15 449.139 1180.46 450.237 1180.46 451.624V465H1177.81V451.592C1177.81 450.867 1177.65 450.301 1177.33 449.896C1177.03 449.491 1176.58 449.288 1175.98 449.288C1175.41 449.288 1174.95 449.491 1174.61 449.896C1174.29 450.28 1174.13 450.835 1174.13 451.56V465H1171.82V451.592C1171.82 450.867 1171.65 450.301 1171.31 449.896C1170.99 449.491 1170.53 449.288 1169.94 449.288C1169.36 449.288 1168.91 449.491 1168.59 449.896C1168.29 450.28 1168.14 450.835 1168.14 451.56V465H1165.49V447.4H1168.02V449.512H1168.21C1168.34 448.765 1168.64 448.179 1169.14 447.752C1169.65 447.304 1170.29 447.08 1171.06 447.08C1171.78 447.08 1172.39 447.293 1172.88 447.72C1173.37 448.125 1173.72 448.723 1173.94 449.512H1174.06C1174.21 448.765 1174.54 448.179 1175.06 447.752C1175.57 447.304 1176.21 447.08 1176.98 447.08ZM1196.16 447.08C1197.25 447.08 1198.1 447.496 1198.72 448.328C1199.34 449.139 1199.65 450.237 1199.65 451.624V465H1196.99V451.592C1196.99 450.867 1196.83 450.301 1196.51 449.896C1196.22 449.491 1195.77 449.288 1195.17 449.288C1194.59 449.288 1194.14 449.491 1193.79 449.896C1193.47 450.28 1193.31 450.835 1193.31 451.56V465H1191.01V451.592C1191.01 450.867 1190.84 450.301 1190.5 449.896C1190.18 449.491 1189.72 449.288 1189.12 449.288C1188.55 449.288 1188.1 449.491 1187.78 449.896C1187.48 450.28 1187.33 450.835 1187.33 451.56V465H1184.67V447.4H1187.2V449.512H1187.39C1187.52 448.765 1187.83 448.179 1188.32 447.752C1188.83 447.304 1189.47 447.08 1190.24 447.08C1190.97 447.08 1191.58 447.293 1192.07 447.72C1192.56 448.125 1192.91 448.723 1193.12 449.512H1193.25C1193.4 448.765 1193.73 448.179 1194.24 447.752C1194.75 447.304 1195.39 447.08 1196.16 447.08ZM1211.41 447.112C1213.46 447.112 1215.08 447.635 1216.28 448.68C1217.47 449.704 1218.07 451.112 1218.07 452.904V465H1215.25V461.64H1215.22C1215.14 462.749 1214.58 463.645 1213.56 464.328C1212.53 464.989 1211.25 465.32 1209.72 465.32C1207.93 465.32 1206.5 464.851 1205.43 463.912C1204.36 462.973 1203.83 461.704 1203.83 460.104C1203.83 458.419 1204.35 457.096 1205.4 456.136C1206.46 455.176 1207.92 454.696 1209.75 454.696H1215.19V453C1215.19 451.933 1214.85 451.112 1214.17 450.536C1213.5 449.939 1212.58 449.64 1211.38 449.64C1210.34 449.64 1209.47 449.853 1208.79 450.28C1208.11 450.707 1207.71 451.293 1207.61 452.04H1204.73C1204.92 450.547 1205.62 449.352 1206.84 448.456C1208.05 447.56 1209.58 447.112 1211.41 447.112ZM1210.39 463.048C1211.8 463.048 1212.95 462.717 1213.85 462.056C1214.74 461.373 1215.19 460.488 1215.19 459.4V456.904H1209.81C1208.85 456.904 1208.1 457.171 1207.54 457.704C1206.99 458.237 1206.71 458.973 1206.71 459.912C1206.71 460.893 1207.04 461.661 1207.7 462.216C1208.36 462.771 1209.26 463.048 1210.39 463.048ZM1231.47 447.08C1233.24 447.08 1234.64 447.635 1235.69 448.744C1236.73 449.832 1237.26 451.304 1237.26 453.16V465H1234.38V453.48C1234.38 452.243 1234.04 451.272 1233.35 450.568C1232.69 449.864 1231.79 449.512 1230.63 449.512C1229.42 449.512 1228.47 449.896 1227.79 450.664C1227.1 451.411 1226.76 452.456 1226.76 453.8V465H1223.88V447.4H1226.76V450.76H1226.79C1226.94 449.587 1227.42 448.68 1228.23 448.04C1229.04 447.4 1230.12 447.08 1231.47 447.08ZM1253.5 441.64H1256.38V465H1253.5V461.64H1253.47C1253.32 462.792 1252.82 463.699 1251.97 464.36C1251.11 465 1250.02 465.32 1248.7 465.32C1246.93 465.32 1245.52 464.733 1244.48 463.56C1243.45 462.387 1242.94 460.797 1242.94 458.792V453.64C1242.94 451.613 1243.45 450.013 1244.48 448.84C1245.52 447.667 1246.93 447.08 1248.7 447.08C1250 447.08 1251.08 447.411 1251.93 448.072C1252.79 448.733 1253.3 449.629 1253.47 450.76H1253.57L1253.5 446.76V441.64ZM1253.5 453.8C1253.5 452.477 1253.16 451.443 1252.48 450.696C1251.79 449.949 1250.86 449.576 1249.66 449.576C1248.45 449.576 1247.5 449.949 1246.81 450.696C1246.15 451.421 1245.82 452.456 1245.82 453.8V458.6C1245.82 459.944 1246.15 460.989 1246.81 461.736C1247.5 462.461 1248.45 462.824 1249.66 462.824C1250.86 462.824 1251.79 462.451 1252.48 461.704C1253.16 460.957 1253.5 459.923 1253.5 458.6V453.8ZM1289.12 447.08C1290.89 447.08 1292.29 447.667 1293.32 448.84C1294.36 450.013 1294.88 451.613 1294.88 453.64V458.792C1294.88 460.797 1294.36 462.387 1293.32 463.56C1292.29 464.733 1290.89 465.32 1289.12 465.32C1287.8 465.32 1286.71 465 1285.86 464.36C1285.01 463.699 1284.51 462.792 1284.36 461.64H1284.32V465H1281.44V441.64H1284.32V446.76L1284.26 450.76H1284.36C1284.53 449.629 1285.04 448.733 1285.89 448.072C1286.75 447.411 1287.82 447.08 1289.12 447.08ZM1292 453.8C1292 452.456 1291.66 451.421 1290.98 450.696C1290.32 449.949 1289.38 449.576 1288.16 449.576C1286.97 449.576 1286.03 449.949 1285.35 450.696C1284.67 451.443 1284.32 452.477 1284.32 453.8V458.6C1284.32 459.923 1284.67 460.957 1285.35 461.704C1286.03 462.451 1286.97 462.824 1288.16 462.824C1289.38 462.824 1290.32 462.461 1290.98 461.736C1291.66 460.989 1292 459.944 1292 458.6V453.8ZM1307.26 465.32C1305.23 465.32 1303.61 464.712 1302.39 463.496C1301.18 462.28 1300.57 460.648 1300.57 458.6V447.4H1303.45V458.6C1303.45 459.923 1303.78 460.957 1304.44 461.704C1305.12 462.429 1306.06 462.792 1307.26 462.792C1308.47 462.792 1309.42 462.429 1310.1 461.704C1310.79 460.957 1311.13 459.923 1311.13 458.6V447.4H1314.01V458.6C1314.01 460.648 1313.39 462.28 1312.15 463.496C1310.94 464.712 1309.3 465.32 1307.26 465.32ZM1323.92 465V450.376H1318.8V447.752H1323.92V446.056C1323.92 444.691 1324.33 443.613 1325.16 442.824C1326 442.035 1327.13 441.64 1328.56 441.64H1334V444.264H1328.56C1328 444.264 1327.56 444.424 1327.24 444.744C1326.94 445.043 1326.8 445.469 1326.8 446.024V447.752H1334V450.376H1326.8V465H1323.92ZM1343.1 465V450.376H1337.98V447.752H1343.1V446.056C1343.1 444.691 1343.52 443.613 1344.35 442.824C1345.18 442.035 1346.31 441.64 1347.74 441.64H1353.18V444.264H1347.74C1347.19 444.264 1346.75 444.424 1346.43 444.744C1346.13 445.043 1345.98 445.469 1345.98 446.024V447.752H1353.18V450.376H1345.98V465H1343.1ZM1371.63 456.904H1360.88V458.6C1360.88 460.008 1361.21 461.075 1361.87 461.8C1362.56 462.525 1363.55 462.888 1364.85 462.888C1367.09 462.888 1368.37 462.099 1368.69 460.52H1371.57C1371.38 461.992 1370.67 463.165 1369.46 464.04C1368.24 464.893 1366.71 465.32 1364.85 465.32C1362.78 465.32 1361.13 464.712 1359.89 463.496C1358.67 462.28 1358.07 460.648 1358.07 458.6V453.8C1358.07 451.752 1358.67 450.12 1359.89 448.904C1361.13 447.688 1362.78 447.08 1364.85 447.08C1366.92 447.08 1368.56 447.688 1369.78 448.904C1371.02 450.12 1371.63 451.752 1371.63 453.8V456.904ZM1360.88 454.728H1368.82V453.8C1368.82 452.392 1368.48 451.325 1367.79 450.6C1367.13 449.853 1366.15 449.48 1364.85 449.48C1363.55 449.48 1362.56 449.853 1361.87 450.6C1361.21 451.325 1360.88 452.392 1360.88 453.8V454.728ZM1385.45 447.08C1387.3 447.08 1388.77 447.667 1389.86 448.84C1390.97 449.992 1391.53 451.56 1391.53 453.544V454.6H1388.65V453.8C1388.65 452.435 1388.3 451.379 1387.62 450.632C1386.96 449.885 1386.01 449.512 1384.77 449.512C1383.56 449.512 1382.6 449.896 1381.89 450.664C1381.21 451.411 1380.87 452.456 1380.87 453.8V465H1377.99V447.4H1380.81V450.536C1381.38 448.232 1382.93 447.08 1385.45 447.08Z" fill="black"/>
<rect x="1656" y="2" width="396" height="196" rx="30" fill="#D9D9D9" stroke="#3B9B0E" stroke-width="4"/>
<rect x="1638" y="22" width="396" height="196" rx="30" fill="#D9D9D9" stroke="#3B9B0E" stroke-width="4"/>
<rect x="1615" y="42" width="396" height="196" rx="30" fill="#D9D9D9" stroke="#3B9B0E" stroke-width="4"/>
<path d="M1690.73 151.32C1688.59 151.32 1686.91 150.723 1685.67 149.528C1684.43 148.333 1683.82 146.691 1683.82 144.6V134.04C1683.82 131.949 1684.43 130.307 1685.67 129.112C1686.91 127.917 1688.59 127.32 1690.73 127.32C1692.82 127.32 1694.48 127.928 1695.72 129.144C1696.96 130.339 1697.58 131.971 1697.58 134.04H1694.7C1694.7 132.717 1694.34 131.693 1693.64 130.968C1692.96 130.243 1691.99 129.88 1690.73 129.88C1689.47 129.88 1688.48 130.243 1687.75 130.968C1687.05 131.693 1686.7 132.707 1686.7 134.008V144.6C1686.7 145.923 1687.05 146.947 1687.75 147.672C1688.46 148.397 1689.45 148.76 1690.73 148.76C1691.99 148.76 1692.96 148.397 1693.64 147.672C1694.34 146.947 1694.7 145.923 1694.7 144.6H1697.58C1697.58 146.669 1696.96 148.312 1695.72 149.528C1694.48 150.723 1692.82 151.32 1690.73 151.32ZM1709.79 151.32C1707.7 151.32 1706.04 150.723 1704.83 149.528C1703.61 148.333 1703 146.691 1703 144.6V139.8C1703 137.709 1703.61 136.067 1704.83 134.872C1706.04 133.677 1707.7 133.08 1709.79 133.08C1711.88 133.08 1713.53 133.677 1714.75 134.872C1715.96 136.067 1716.57 137.699 1716.57 139.768V144.6C1716.57 146.691 1715.96 148.333 1714.75 149.528C1713.53 150.723 1711.88 151.32 1709.79 151.32ZM1709.79 148.76C1711.05 148.76 1712.01 148.408 1712.67 147.704C1713.35 146.979 1713.69 145.944 1713.69 144.6V139.8C1713.69 138.456 1713.35 137.432 1712.67 136.728C1712.01 136.003 1711.05 135.64 1709.79 135.64C1708.53 135.64 1707.56 136.003 1706.88 136.728C1706.21 137.432 1705.88 138.456 1705.88 139.8V144.6C1705.88 145.944 1706.21 146.979 1706.88 147.704C1707.56 148.408 1708.53 148.76 1709.79 148.76ZM1732.98 133.08C1734.06 133.08 1734.92 133.496 1735.53 134.328C1736.15 135.139 1736.46 136.237 1736.46 137.624V151H1733.81V137.592C1733.81 136.867 1733.65 136.301 1733.33 135.896C1733.03 135.491 1732.58 135.288 1731.98 135.288C1731.41 135.288 1730.95 135.491 1730.61 135.896C1730.29 136.28 1730.13 136.835 1730.13 137.56V151H1727.82V137.592C1727.82 136.867 1727.65 136.301 1727.31 135.896C1726.99 135.491 1726.53 135.288 1725.94 135.288C1725.36 135.288 1724.91 135.491 1724.59 135.896C1724.29 136.28 1724.14 136.835 1724.14 137.56V151H1721.49V133.4H1724.02V135.512H1724.21C1724.34 134.765 1724.64 134.179 1725.14 133.752C1725.65 133.304 1726.29 133.08 1727.06 133.08C1727.78 133.08 1728.39 133.293 1728.88 133.72C1729.37 134.125 1729.72 134.723 1729.94 135.512H1730.06C1730.21 134.765 1730.54 134.179 1731.06 133.752C1731.57 133.304 1732.21 133.08 1732.98 133.08ZM1752.16 133.08C1753.25 133.08 1754.1 133.496 1754.72 134.328C1755.34 135.139 1755.65 136.237 1755.65 137.624V151H1752.99V137.592C1752.99 136.867 1752.83 136.301 1752.51 135.896C1752.22 135.491 1751.77 135.288 1751.17 135.288C1750.59 135.288 1750.14 135.491 1749.79 135.896C1749.47 136.28 1749.31 136.835 1749.31 137.56V151H1747.01V137.592C1747.01 136.867 1746.84 136.301 1746.5 135.896C1746.18 135.491 1745.72 135.288 1745.12 135.288C1744.55 135.288 1744.1 135.491 1743.78 135.896C1743.48 136.28 1743.33 136.835 1743.33 137.56V151H1740.67V133.4H1743.2V135.512H1743.39C1743.52 134.765 1743.83 134.179 1744.32 133.752C1744.83 133.304 1745.47 133.08 1746.24 133.08C1746.97 133.08 1747.58 133.293 1748.07 133.72C1748.56 134.125 1748.91 134.723 1749.12 135.512H1749.25C1749.4 134.765 1749.73 134.179 1750.24 133.752C1750.75 133.304 1751.39 133.08 1752.16 133.08ZM1767.41 133.112C1769.46 133.112 1771.08 133.635 1772.28 134.68C1773.47 135.704 1774.07 137.112 1774.07 138.904V151H1771.25V147.64H1771.22C1771.14 148.749 1770.58 149.645 1769.56 150.328C1768.53 150.989 1767.25 151.32 1765.72 151.32C1763.93 151.32 1762.5 150.851 1761.43 149.912C1760.36 148.973 1759.83 147.704 1759.83 146.104C1759.83 144.419 1760.35 143.096 1761.4 142.136C1762.46 141.176 1763.92 140.696 1765.75 140.696H1771.19V139C1771.19 137.933 1770.85 137.112 1770.17 136.536C1769.5 135.939 1768.58 135.64 1767.38 135.64C1766.34 135.64 1765.47 135.853 1764.79 136.28C1764.11 136.707 1763.71 137.293 1763.61 138.04H1760.73C1760.92 136.547 1761.62 135.352 1762.84 134.456C1764.05 133.56 1765.58 133.112 1767.41 133.112ZM1766.39 149.048C1767.8 149.048 1768.95 148.717 1769.85 148.056C1770.74 147.373 1771.19 146.488 1771.19 145.4V142.904H1765.81C1764.85 142.904 1764.1 143.171 1763.54 143.704C1762.99 144.237 1762.71 144.973 1762.71 145.912C1762.71 146.893 1763.04 147.661 1763.7 148.216C1764.36 148.771 1765.26 149.048 1766.39 149.048ZM1787.47 133.08C1789.24 133.08 1790.64 133.635 1791.69 134.744C1792.73 135.832 1793.26 137.304 1793.26 139.16V151H1790.38V139.48C1790.38 138.243 1790.04 137.272 1789.35 136.568C1788.69 135.864 1787.79 135.512 1786.63 135.512C1785.42 135.512 1784.47 135.896 1783.79 136.664C1783.1 137.411 1782.76 138.456 1782.76 139.8V151H1779.88V133.4H1782.76V136.76H1782.79C1782.94 135.587 1783.42 134.68 1784.23 134.04C1785.04 133.4 1786.12 133.08 1787.47 133.08ZM1809.5 127.64H1812.38V151H1809.5V147.64H1809.47C1809.32 148.792 1808.82 149.699 1807.97 150.36C1807.11 151 1806.02 151.32 1804.7 151.32C1802.93 151.32 1801.52 150.733 1800.48 149.56C1799.45 148.387 1798.94 146.797 1798.94 144.792V139.64C1798.94 137.613 1799.45 136.013 1800.48 134.84C1801.52 133.667 1802.93 133.08 1804.7 133.08C1806 133.08 1807.08 133.411 1807.93 134.072C1808.79 134.733 1809.3 135.629 1809.47 136.76H1809.57L1809.5 132.76V127.64ZM1809.5 139.8C1809.5 138.477 1809.16 137.443 1808.48 136.696C1807.79 135.949 1806.86 135.576 1805.66 135.576C1804.45 135.576 1803.5 135.949 1802.81 136.696C1802.15 137.421 1801.82 138.456 1801.82 139.8V144.6C1801.82 145.944 1802.15 146.989 1802.81 147.736C1803.5 148.461 1804.45 148.824 1805.66 148.824C1806.86 148.824 1807.79 148.451 1808.48 147.704C1809.16 146.957 1809.5 145.923 1809.5 144.6V139.8ZM1850.88 142.904H1840.13V144.6C1840.13 146.008 1840.46 147.075 1841.12 147.8C1841.81 148.525 1842.8 148.888 1844.1 148.888C1846.34 148.888 1847.62 148.099 1847.94 146.52H1850.82C1850.63 147.992 1849.92 149.165 1848.71 150.04C1847.49 150.893 1845.96 151.32 1844.1 151.32C1842.03 151.32 1840.38 150.712 1839.14 149.496C1837.92 148.28 1837.32 146.648 1837.32 144.6V139.8C1837.32 137.752 1837.92 136.12 1839.14 134.904C1840.38 133.688 1842.03 133.08 1844.1 133.08C1846.17 133.08 1847.81 133.688 1849.03 134.904C1850.27 136.12 1850.88 137.752 1850.88 139.8V142.904ZM1840.13 140.728H1848.07V139.8C1848.07 138.392 1847.73 137.325 1847.04 136.6C1846.38 135.853 1845.4 135.48 1844.1 135.48C1842.8 135.48 1841.81 135.853 1841.12 136.6C1840.46 137.325 1840.13 138.392 1840.13 139.8V140.728ZM1864.22 133.08C1865.99 133.08 1867.39 133.635 1868.44 134.744C1869.48 135.832 1870.01 137.304 1870.01 139.16V151H1867.13V139.48C1867.13 138.243 1866.79 137.272 1866.1 136.568C1865.44 135.864 1864.54 135.512 1863.38 135.512C1862.17 135.512 1861.22 135.896 1860.54 136.664C1859.85 137.411 1859.51 138.456 1859.51 139.8V151H1856.63V133.4H1859.51V136.76H1859.54C1859.69 135.587 1860.17 134.68 1860.98 134.04C1861.79 133.4 1862.87 133.08 1864.22 133.08ZM1882.6 151.32C1880.47 151.32 1878.78 150.723 1877.55 149.528C1876.31 148.333 1875.69 146.691 1875.69 144.6V139.8C1875.69 137.709 1876.31 136.067 1877.55 134.872C1878.78 133.677 1880.47 133.08 1882.6 133.08C1884.63 133.08 1886.26 133.624 1887.5 134.712C1888.74 135.8 1889.39 137.283 1889.45 139.16H1886.57C1886.51 138.051 1886.12 137.187 1885.42 136.568C1884.74 135.949 1883.8 135.64 1882.6 135.64C1881.34 135.64 1880.35 136.003 1879.63 136.728C1878.92 137.453 1878.57 138.467 1878.57 139.768V144.6C1878.57 145.923 1878.92 146.947 1879.63 147.672C1880.33 148.397 1881.32 148.76 1882.6 148.76C1883.8 148.76 1884.74 148.451 1885.42 147.832C1886.12 147.213 1886.51 146.349 1886.57 145.24H1889.45C1889.39 147.117 1888.74 148.6 1887.5 149.688C1886.26 150.776 1884.63 151.32 1882.6 151.32ZM1901.66 151.32C1899.57 151.32 1897.92 150.723 1896.7 149.528C1895.49 148.333 1894.88 146.691 1894.88 144.6V139.8C1894.88 137.709 1895.49 136.067 1896.7 134.872C1897.92 133.677 1899.57 133.08 1901.66 133.08C1903.75 133.08 1905.41 133.677 1906.62 134.872C1907.84 136.067 1908.45 137.699 1908.45 139.768V144.6C1908.45 146.691 1907.84 148.333 1906.62 149.528C1905.41 150.723 1903.75 151.32 1901.66 151.32ZM1901.66 148.76C1902.92 148.76 1903.88 148.408 1904.54 147.704C1905.23 146.979 1905.57 145.944 1905.57 144.6V139.8C1905.57 138.456 1905.23 137.432 1904.54 136.728C1903.88 136.003 1902.92 135.64 1901.66 135.64C1900.4 135.64 1899.43 136.003 1898.75 136.728C1898.09 137.432 1897.76 138.456 1897.76 139.8V144.6C1897.76 145.944 1898.09 146.979 1898.75 147.704C1899.43 148.408 1900.4 148.76 1901.66 148.76ZM1924.63 127.64H1927.51V151H1924.63V147.64H1924.59C1924.44 148.792 1923.94 149.699 1923.09 150.36C1922.24 151 1921.15 151.32 1919.83 151.32C1918.06 151.32 1916.65 150.733 1915.6 149.56C1914.58 148.387 1914.07 146.797 1914.07 144.792V139.64C1914.07 137.613 1914.58 136.013 1915.6 134.84C1916.65 133.667 1918.06 133.08 1919.83 133.08C1921.13 133.08 1922.2 133.411 1923.06 134.072C1923.91 134.733 1924.42 135.629 1924.59 136.76H1924.69L1924.63 132.76V127.64ZM1924.63 139.8C1924.63 138.477 1924.28 137.443 1923.6 136.696C1922.92 135.949 1921.98 135.576 1920.79 135.576C1919.57 135.576 1918.62 135.949 1917.94 136.696C1917.28 137.421 1916.95 138.456 1916.95 139.8V144.6C1916.95 145.944 1917.28 146.989 1917.94 147.736C1918.62 148.461 1919.57 148.824 1920.79 148.824C1921.98 148.824 1922.92 148.451 1923.6 147.704C1924.28 146.957 1924.63 145.923 1924.63 144.6V139.8ZM1946.82 142.904H1936.07V144.6C1936.07 146.008 1936.4 147.075 1937.06 147.8C1937.74 148.525 1938.74 148.888 1940.04 148.888C1942.28 148.888 1943.56 148.099 1943.88 146.52H1946.76C1946.57 147.992 1945.86 149.165 1944.65 150.04C1943.43 150.893 1941.89 151.32 1940.04 151.32C1937.97 151.32 1936.31 150.712 1935.08 149.496C1933.86 148.28 1933.25 146.648 1933.25 144.6V139.8C1933.25 137.752 1933.86 136.12 1935.08 134.904C1936.31 133.688 1937.97 133.08 1940.04 133.08C1942.11 133.08 1943.75 133.688 1944.97 134.904C1946.2 136.12 1946.82 137.752 1946.82 139.8V142.904ZM1936.07 140.728H1944.01V139.8C1944.01 138.392 1943.66 137.325 1942.98 136.6C1942.32 135.853 1941.34 135.48 1940.04 135.48C1938.74 135.48 1937.74 135.853 1937.06 136.6C1936.4 137.325 1936.07 138.392 1936.07 139.8V140.728ZM1960.63 133.08C1962.49 133.08 1963.96 133.667 1965.05 134.84C1966.16 135.992 1966.71 137.56 1966.71 139.544V140.6H1963.83V139.8C1963.83 138.435 1963.49 137.379 1962.81 136.632C1962.15 135.885 1961.2 135.512 1959.96 135.512C1958.75 135.512 1957.79 135.896 1957.08 136.664C1956.4 137.411 1956.06 138.456 1956.06 139.8V151H1953.18V133.4H1955.99V136.536C1956.57 134.232 1958.12 133.08 1960.63 133.08Z" fill="black"/>
<rect x="1656" y="296" width="396" height="196" rx="30" fill="#D9D9D9" stroke="#3B9B0E" stroke-width="4"/>
<rect x="1638" y="316" width="396" height="196" rx="30" fill="#D9D9D9" stroke="#3B9B0E" stroke-width="4"/>
<rect x="1615" y="336" width="396" height="196" rx="30" fill="#D9D9D9" stroke="#3B9B0E" stroke-width="4"/>
<path d="M1690.73 445.32C1688.59 445.32 1686.91 444.723 1685.67 443.528C1684.43 442.333 1683.82 440.691 1683.82 438.6V428.04C1683.82 425.949 1684.43 424.307 1685.67 423.112C1686.91 421.917 1688.59 421.32 1690.73 421.32C1692.82 421.32 1694.48 421.928 1695.72 423.144C1696.96 424.339 1697.58 425.971 1697.58 428.04H1694.7C1694.7 426.717 1694.34 425.693 1693.64 424.968C1692.96 424.243 1691.99 423.88 1690.73 423.88C1689.47 423.88 1688.48 424.243 1687.75 424.968C1687.05 425.693 1686.7 426.707 1686.7 428.008V438.6C1686.7 439.923 1687.05 440.947 1687.75 441.672C1688.46 442.397 1689.45 442.76 1690.73 442.76C1691.99 442.76 1692.96 442.397 1693.64 441.672C1694.34 440.947 1694.7 439.923 1694.7 438.6H1697.58C1697.58 440.669 1696.96 442.312 1695.72 443.528C1694.48 444.723 1692.82 445.32 1690.73 445.32ZM1709.79 445.32C1707.7 445.32 1706.04 444.723 1704.83 443.528C1703.61 442.333 1703 440.691 1703 438.6V433.8C1703 431.709 1703.61 430.067 1704.83 428.872C1706.04 427.677 1707.7 427.08 1709.79 427.08C1711.88 427.08 1713.53 427.677 1714.75 428.872C1715.96 430.067 1716.57 431.699 1716.57 433.768V438.6C1716.57 440.691 1715.96 442.333 1714.75 443.528C1713.53 444.723 1711.88 445.32 1709.79 445.32ZM1709.79 442.76C1711.05 442.76 1712.01 442.408 1712.67 441.704C1713.35 440.979 1713.69 439.944 1713.69 438.6V433.8C1713.69 432.456 1713.35 431.432 1712.67 430.728C1712.01 430.003 1711.05 429.64 1709.79 429.64C1708.53 429.64 1707.56 430.003 1706.88 430.728C1706.21 431.432 1705.88 432.456 1705.88 433.8V438.6C1705.88 439.944 1706.21 440.979 1706.88 441.704C1707.56 442.408 1708.53 442.76 1709.79 442.76ZM1732.98 427.08C1734.06 427.08 1734.92 427.496 1735.53 428.328C1736.15 429.139 1736.46 430.237 1736.46 431.624V445H1733.81V431.592C1733.81 430.867 1733.65 430.301 1733.33 429.896C1733.03 429.491 1732.58 429.288 1731.98 429.288C1731.41 429.288 1730.95 429.491 1730.61 429.896C1730.29 430.28 1730.13 430.835 1730.13 431.56V445H1727.82V431.592C1727.82 430.867 1727.65 430.301 1727.31 429.896C1726.99 429.491 1726.53 429.288 1725.94 429.288C1725.36 429.288 1724.91 429.491 1724.59 429.896C1724.29 430.28 1724.14 430.835 1724.14 431.56V445H1721.49V427.4H1724.02V429.512H1724.21C1724.34 428.765 1724.64 428.179 1725.14 427.752C1725.65 427.304 1726.29 427.08 1727.06 427.08C1727.78 427.08 1728.39 427.293 1728.88 427.72C1729.37 428.125 1729.72 428.723 1729.94 429.512H1730.06C1730.21 428.765 1730.54 428.179 1731.06 427.752C1731.57 427.304 1732.21 427.08 1732.98 427.08ZM1752.16 427.08C1753.25 427.08 1754.1 427.496 1754.72 428.328C1755.34 429.139 1755.65 430.237 1755.65 431.624V445H1752.99V431.592C1752.99 430.867 1752.83 430.301 1752.51 429.896C1752.22 429.491 1751.77 429.288 1751.17 429.288C1750.59 429.288 1750.14 429.491 1749.79 429.896C1749.47 430.28 1749.31 430.835 1749.31 431.56V445H1747.01V431.592C1747.01 430.867 1746.84 430.301 1746.5 429.896C1746.18 429.491 1745.72 429.288 1745.12 429.288C1744.55 429.288 1744.1 429.491 1743.78 429.896C1743.48 430.28 1743.33 430.835 1743.33 431.56V445H1740.67V427.4H1743.2V429.512H1743.39C1743.52 428.765 1743.83 428.179 1744.32 427.752C1744.83 427.304 1745.47 427.08 1746.24 427.08C1746.97 427.08 1747.58 427.293 1748.07 427.72C1748.56 428.125 1748.91 428.723 1749.12 429.512H1749.25C1749.4 428.765 1749.73 428.179 1750.24 427.752C1750.75 427.304 1751.39 427.08 1752.16 427.08ZM1767.41 427.112C1769.46 427.112 1771.08 427.635 1772.28 428.68C1773.47 429.704 1774.07 431.112 1774.07 432.904V445H1771.25V441.64H1771.22C1771.14 442.749 1770.58 443.645 1769.56 444.328C1768.53 444.989 1767.25 445.32 1765.72 445.32C1763.93 445.32 1762.5 444.851 1761.43 443.912C1760.36 442.973 1759.83 441.704 1759.83 440.104C1759.83 438.419 1760.35 437.096 1761.4 436.136C1762.46 435.176 1763.92 434.696 1765.75 434.696H1771.19V433C1771.19 431.933 1770.85 431.112 1770.17 430.536C1769.5 429.939 1768.58 429.64 1767.38 429.64C1766.34 429.64 1765.47 429.853 1764.79 430.28C1764.11 430.707 1763.71 431.293 1763.61 432.04H1760.73C1760.92 430.547 1761.62 429.352 1762.84 428.456C1764.05 427.56 1765.58 427.112 1767.41 427.112ZM1766.39 443.048C1767.8 443.048 1768.95 442.717 1769.85 442.056C1770.74 441.373 1771.19 440.488 1771.19 439.4V436.904H1765.81C1764.85 436.904 1764.1 437.171 1763.54 437.704C1762.99 438.237 1762.71 438.973 1762.71 439.912C1762.71 440.893 1763.04 441.661 1763.7 442.216C1764.36 442.771 1765.26 443.048 1766.39 443.048ZM1787.47 427.08C1789.24 427.08 1790.64 427.635 1791.69 428.744C1792.73 429.832 1793.26 431.304 1793.26 433.16V445H1790.38V433.48C1790.38 432.243 1790.04 431.272 1789.35 430.568C1788.69 429.864 1787.79 429.512 1786.63 429.512C1785.42 429.512 1784.47 429.896 1783.79 430.664C1783.1 431.411 1782.76 432.456 1782.76 433.8V445H1779.88V427.4H1782.76V430.76H1782.79C1782.94 429.587 1783.42 428.68 1784.23 428.04C1785.04 427.4 1786.12 427.08 1787.47 427.08ZM1809.5 421.64H1812.38V445H1809.5V441.64H1809.47C1809.32 442.792 1808.82 443.699 1807.97 444.36C1807.11 445 1806.02 445.32 1804.7 445.32C1802.93 445.32 1801.52 444.733 1800.48 443.56C1799.45 442.387 1798.94 440.797 1798.94 438.792V433.64C1798.94 431.613 1799.45 430.013 1800.48 428.84C1801.52 427.667 1802.93 427.08 1804.7 427.08C1806 427.08 1807.08 427.411 1807.93 428.072C1808.79 428.733 1809.3 429.629 1809.47 430.76H1809.57L1809.5 426.76V421.64ZM1809.5 433.8C1809.5 432.477 1809.16 431.443 1808.48 430.696C1807.79 429.949 1806.86 429.576 1805.66 429.576C1804.45 429.576 1803.5 429.949 1802.81 430.696C1802.15 431.421 1801.82 432.456 1801.82 433.8V438.6C1801.82 439.944 1802.15 440.989 1802.81 441.736C1803.5 442.461 1804.45 442.824 1805.66 442.824C1806.86 442.824 1807.79 442.451 1808.48 441.704C1809.16 440.957 1809.5 439.923 1809.5 438.6V433.8ZM1850.88 436.904H1840.13V438.6C1840.13 440.008 1840.46 441.075 1841.12 441.8C1841.81 442.525 1842.8 442.888 1844.1 442.888C1846.34 442.888 1847.62 442.099 1847.94 440.52H1850.82C1850.63 441.992 1849.92 443.165 1848.71 444.04C1847.49 444.893 1845.96 445.32 1844.1 445.32C1842.03 445.32 1840.38 444.712 1839.14 443.496C1837.92 442.28 1837.32 440.648 1837.32 438.6V433.8C1837.32 431.752 1837.92 430.12 1839.14 428.904C1840.38 427.688 1842.03 427.08 1844.1 427.08C1846.17 427.08 1847.81 427.688 1849.03 428.904C1850.27 430.12 1850.88 431.752 1850.88 433.8V436.904ZM1840.13 434.728H1848.07V433.8C1848.07 432.392 1847.73 431.325 1847.04 430.6C1846.38 429.853 1845.4 429.48 1844.1 429.48C1842.8 429.48 1841.81 429.853 1841.12 430.6C1840.46 431.325 1840.13 432.392 1840.13 433.8V434.728ZM1864.22 427.08C1865.99 427.08 1867.39 427.635 1868.44 428.744C1869.48 429.832 1870.01 431.304 1870.01 433.16V445H1867.13V433.48C1867.13 432.243 1866.79 431.272 1866.1 430.568C1865.44 429.864 1864.54 429.512 1863.38 429.512C1862.17 429.512 1861.22 429.896 1860.54 430.664C1859.85 431.411 1859.51 432.456 1859.51 433.8V445H1856.63V427.4H1859.51V430.76H1859.54C1859.69 429.587 1860.17 428.68 1860.98 428.04C1861.79 427.4 1862.87 427.08 1864.22 427.08ZM1882.6 445.32C1880.47 445.32 1878.78 444.723 1877.55 443.528C1876.31 442.333 1875.69 440.691 1875.69 438.6V433.8C1875.69 431.709 1876.31 430.067 1877.55 428.872C1878.78 427.677 1880.47 427.08 1882.6 427.08C1884.63 427.08 1886.26 427.624 1887.5 428.712C1888.74 429.8 1889.39 431.283 1889.45 433.16H1886.57C1886.51 432.051 1886.12 431.187 1885.42 430.568C1884.74 429.949 1883.8 429.64 1882.6 429.64C1881.34 429.64 1880.35 430.003 1879.63 430.728C1878.92 431.453 1878.57 432.467 1878.57 433.768V438.6C1878.57 439.923 1878.92 440.947 1879.63 441.672C1880.33 442.397 1881.32 442.76 1882.6 442.76C1883.8 442.76 1884.74 442.451 1885.42 441.832C1886.12 441.213 1886.51 440.349 1886.57 439.24H1889.45C1889.39 441.117 1888.74 442.6 1887.5 443.688C1886.26 444.776 1884.63 445.32 1882.6 445.32ZM1901.66 445.32C1899.57 445.32 1897.92 444.723 1896.7 443.528C1895.49 442.333 1894.88 440.691 1894.88 438.6V433.8C1894.88 431.709 1895.49 430.067 1896.7 428.872C1897.92 427.677 1899.57 427.08 1901.66 427.08C1903.75 427.08 1905.41 427.677 1906.62 428.872C1907.84 430.067 1908.45 431.699 1908.45 433.768V438.6C1908.45 440.691 1907.84 442.333 1906.62 443.528C1905.41 444.723 1903.75 445.32 1901.66 445.32ZM1901.66 442.76C1902.92 442.76 1903.88 442.408 1904.54 441.704C1905.23 440.979 1905.57 439.944 1905.57 438.6V433.8C1905.57 432.456 1905.23 431.432 1904.54 430.728C1903.88 430.003 1902.92 429.64 1901.66 429.64C1900.4 429.64 1899.43 430.003 1898.75 430.728C1898.09 431.432 1897.76 432.456 1897.76 433.8V438.6C1897.76 439.944 1898.09 440.979 1898.75 441.704C1899.43 442.408 1900.4 442.76 1901.66 442.76ZM1924.63 421.64H1927.51V445H1924.63V441.64H1924.59C1924.44 442.792 1923.94 443.699 1923.09 444.36C1922.24 445 1921.15 445.32 1919.83 445.32C1918.06 445.32 1916.65 444.733 1915.6 443.56C1914.58 442.387 1914.07 440.797 1914.07 438.792V433.64C1914.07 431.613 1914.58 430.013 1915.6 428.84C1916.65 427.667 1918.06 427.08 1919.83 427.08C1921.13 427.08 1922.2 427.411 1923.06 428.072C1923.91 428.733 1924.42 429.629 1924.59 430.76H1924.69L1924.63 426.76V421.64ZM1924.63 433.8C1924.63 432.477 1924.28 431.443 1923.6 430.696C1922.92 429.949 1921.98 429.576 1920.79 429.576C1919.57 429.576 1918.62 429.949 1917.94 430.696C1917.28 431.421 1916.95 432.456 1916.95 433.8V438.6C1916.95 439.944 1917.28 440.989 1917.94 441.736C1918.62 442.461 1919.57 442.824 1920.79 442.824C1921.98 442.824 1922.92 442.451 1923.6 441.704C1924.28 440.957 1924.63 439.923 1924.63 438.6V433.8ZM1946.82 436.904H1936.07V438.6C1936.07 440.008 1936.4 441.075 1937.06 441.8C1937.74 442.525 1938.74 442.888 1940.04 442.888C1942.28 442.888 1943.56 442.099 1943.88 440.52H1946.76C1946.57 441.992 1945.86 443.165 1944.65 444.04C1943.43 444.893 1941.89 445.32 1940.04 445.32C1937.97 445.32 1936.31 444.712 1935.08 443.496C1933.86 442.28 1933.25 440.648 1933.25 438.6V433.8C1933.25 431.752 1933.86 430.12 1935.08 428.904C1936.31 427.688 1937.97 427.08 1940.04 427.08C1942.11 427.08 1943.75 427.688 1944.97 428.904C1946.2 430.12 1946.82 431.752 1946.82 433.8V436.904ZM1936.07 434.728H1944.01V433.8C1944.01 432.392 1943.66 431.325 1942.98 430.6C1942.32 429.853 1941.34 429.48 1940.04 429.48C1938.74 429.48 1937.74 429.853 1937.06 430.6C1936.4 431.325 1936.07 432.392 1936.07 433.8V434.728ZM1960.63 427.08C1962.49 427.08 1963.96 427.667 1965.05 428.84C1966.16 429.992 1966.71 431.56 1966.71 433.544V434.6H1963.83V433.8C1963.83 432.435 1963.49 431.379 1962.81 430.632C1962.15 429.885 1961.2 429.512 1959.96 429.512C1958.75 429.512 1957.79 429.896 1957.08 430.664C1956.4 431.411 1956.06 432.456 1956.06 433.8V445H1953.18V427.4H1955.99V430.536C1956.57 428.232 1958.12 427.08 1960.63 427.08Z" fill="black"/>
<rect x="1656" y="590" width="396" height="196" rx="30" fill="#D9D9D9" stroke="#3B9B0E" stroke-width="4"/>
<rect x="1638" y="610" width="396" height="196" rx="30" fill="#D9D9D9" stroke="#3B9B0E" stroke-width="4"/>
<rect x="1615" y="630" width="396" height="196" rx="30" fill="#D9D9D9" stroke="#3B9B0E" stroke-width="4"/>
<path d="M1690.73 739.32C1688.59 739.32 1686.91 738.723 1685.67 737.528C1684.43 736.333 1683.82 734.691 1683.82 732.6V722.04C1683.82 719.949 1684.43 718.307 1685.67 717.112C1686.91 715.917 1688.59 715.32 1690.73 715.32C1692.82 715.32 1694.48 715.928 1695.72 717.144C1696.96 718.339 1697.58 719.971 1697.58 722.04H1694.7C1694.7 720.717 1694.34 719.693 1693.64 718.968C1692.96 718.243 1691.99 717.88 1690.73 717.88C1689.47 717.88 1688.48 718.243 1687.75 718.968C1687.05 719.693 1686.7 720.707 1686.7 722.008V732.6C1686.7 733.923 1687.05 734.947 1687.75 735.672C1688.46 736.397 1689.45 736.76 1690.73 736.76C1691.99 736.76 1692.96 736.397 1693.64 735.672C1694.34 734.947 1694.7 733.923 1694.7 732.6H1697.58C1697.58 734.669 1696.96 736.312 1695.72 737.528C1694.48 738.723 1692.82 739.32 1690.73 739.32ZM1709.79 739.32C1707.7 739.32 1706.04 738.723 1704.83 737.528C1703.61 736.333 1703 734.691 1703 732.6V727.8C1703 725.709 1703.61 724.067 1704.83 722.872C1706.04 721.677 1707.7 721.08 1709.79 721.08C1711.88 721.08 1713.53 721.677 1714.75 722.872C1715.96 724.067 1716.57 725.699 1716.57 727.768V732.6C1716.57 734.691 1715.96 736.333 1714.75 737.528C1713.53 738.723 1711.88 739.32 1709.79 739.32ZM1709.79 736.76C1711.05 736.76 1712.01 736.408 1712.67 735.704C1713.35 734.979 1713.69 733.944 1713.69 732.6V727.8C1713.69 726.456 1713.35 725.432 1712.67 724.728C1712.01 724.003 1711.05 723.64 1709.79 723.64C1708.53 723.64 1707.56 724.003 1706.88 724.728C1706.21 725.432 1705.88 726.456 1705.88 727.8V732.6C1705.88 733.944 1706.21 734.979 1706.88 735.704C1707.56 736.408 1708.53 736.76 1709.79 736.76ZM1732.98 721.08C1734.06 721.08 1734.92 721.496 1735.53 722.328C1736.15 723.139 1736.46 724.237 1736.46 725.624V739H1733.81V725.592C1733.81 724.867 1733.65 724.301 1733.33 723.896C1733.03 723.491 1732.58 723.288 1731.98 723.288C1731.41 723.288 1730.95 723.491 1730.61 723.896C1730.29 724.28 1730.13 724.835 1730.13 725.56V739H1727.82V725.592C1727.82 724.867 1727.65 724.301 1727.31 723.896C1726.99 723.491 1726.53 723.288 1725.94 723.288C1725.36 723.288 1724.91 723.491 1724.59 723.896C1724.29 724.28 1724.14 724.835 1724.14 725.56V739H1721.49V721.4H1724.02V723.512H1724.21C1724.34 722.765 1724.64 722.179 1725.14 721.752C1725.65 721.304 1726.29 721.08 1727.06 721.08C1727.78 721.08 1728.39 721.293 1728.88 721.72C1729.37 722.125 1729.72 722.723 1729.94 723.512H1730.06C1730.21 722.765 1730.54 722.179 1731.06 721.752C1731.57 721.304 1732.21 721.08 1732.98 721.08ZM1752.16 721.08C1753.25 721.08 1754.1 721.496 1754.72 722.328C1755.34 723.139 1755.65 724.237 1755.65 725.624V739H1752.99V725.592C1752.99 724.867 1752.83 724.301 1752.51 723.896C1752.22 723.491 1751.77 723.288 1751.17 723.288C1750.59 723.288 1750.14 723.491 1749.79 723.896C1749.47 724.28 1749.31 724.835 1749.31 725.56V739H1747.01V725.592C1747.01 724.867 1746.84 724.301 1746.5 723.896C1746.18 723.491 1745.72 723.288 1745.12 723.288C1744.55 723.288 1744.1 723.491 1743.78 723.896C1743.48 724.28 1743.33 724.835 1743.33 725.56V739H1740.67V721.4H1743.2V723.512H1743.39C1743.52 722.765 1743.83 722.179 1744.32 721.752C1744.83 721.304 1745.47 721.08 1746.24 721.08C1746.97 721.08 1747.58 721.293 1748.07 721.72C1748.56 722.125 1748.91 722.723 1749.12 723.512H1749.25C1749.4 722.765 1749.73 722.179 1750.24 721.752C1750.75 721.304 1751.39 721.08 1752.16 721.08ZM1767.41 721.112C1769.46 721.112 1771.08 721.635 1772.28 722.68C1773.47 723.704 1774.07 725.112 1774.07 726.904V739H1771.25V735.64H1771.22C1771.14 736.749 1770.58 737.645 1769.56 738.328C1768.53 738.989 1767.25 739.32 1765.72 739.32C1763.93 739.32 1762.5 738.851 1761.43 737.912C1760.36 736.973 1759.83 735.704 1759.83 734.104C1759.83 732.419 1760.35 731.096 1761.4 730.136C1762.46 729.176 1763.92 728.696 1765.75 728.696H1771.19V727C1771.19 725.933 1770.85 725.112 1770.17 724.536C1769.5 723.939 1768.58 723.64 1767.38 723.64C1766.34 723.64 1765.47 723.853 1764.79 724.28C1764.11 724.707 1763.71 725.293 1763.61 726.04H1760.73C1760.92 724.547 1761.62 723.352 1762.84 722.456C1764.05 721.56 1765.58 721.112 1767.41 721.112ZM1766.39 737.048C1767.8 737.048 1768.95 736.717 1769.85 736.056C1770.74 735.373 1771.19 734.488 1771.19 733.4V730.904H1765.81C1764.85 730.904 1764.1 731.171 1763.54 731.704C1762.99 732.237 1762.71 732.973 1762.71 733.912C1762.71 734.893 1763.04 735.661 1763.7 736.216C1764.36 736.771 1765.26 737.048 1766.39 737.048ZM1787.47 721.08C1789.24 721.08 1790.64 721.635 1791.69 722.744C1792.73 723.832 1793.26 725.304 1793.26 727.16V739H1790.38V727.48C1790.38 726.243 1790.04 725.272 1789.35 724.568C1788.69 723.864 1787.79 723.512 1786.63 723.512C1785.42 723.512 1784.47 723.896 1783.79 724.664C1783.1 725.411 1782.76 726.456 1782.76 727.8V739H1779.88V721.4H1782.76V724.76H1782.79C1782.94 723.587 1783.42 722.68 1784.23 722.04C1785.04 721.4 1786.12 721.08 1787.47 721.08ZM1809.5 715.64H1812.38V739H1809.5V735.64H1809.47C1809.32 736.792 1808.82 737.699 1807.97 738.36C1807.11 739 1806.02 739.32 1804.7 739.32C1802.93 739.32 1801.52 738.733 1800.48 737.56C1799.45 736.387 1798.94 734.797 1798.94 732.792V727.64C1798.94 725.613 1799.45 724.013 1800.48 722.84C1801.52 721.667 1802.93 721.08 1804.7 721.08C1806 721.08 1807.08 721.411 1807.93 722.072C1808.79 722.733 1809.3 723.629 1809.47 724.76H1809.57L1809.5 720.76V715.64ZM1809.5 727.8C1809.5 726.477 1809.16 725.443 1808.48 724.696C1807.79 723.949 1806.86 723.576 1805.66 723.576C1804.45 723.576 1803.5 723.949 1802.81 724.696C1802.15 725.421 1801.82 726.456 1801.82 727.8V732.6C1801.82 733.944 1802.15 734.989 1802.81 735.736C1803.5 736.461 1804.45 736.824 1805.66 736.824C1806.86 736.824 1807.79 736.451 1808.48 735.704C1809.16 734.957 1809.5 733.923 1809.5 732.6V727.8ZM1850.88 730.904H1840.13V732.6C1840.13 734.008 1840.46 735.075 1841.12 735.8C1841.81 736.525 1842.8 736.888 1844.1 736.888C1846.34 736.888 1847.62 736.099 1847.94 734.52H1850.82C1850.63 735.992 1849.92 737.165 1848.71 738.04C1847.49 738.893 1845.96 739.32 1844.1 739.32C1842.03 739.32 1840.38 738.712 1839.14 737.496C1837.92 736.28 1837.32 734.648 1837.32 732.6V727.8C1837.32 725.752 1837.92 724.12 1839.14 722.904C1840.38 721.688 1842.03 721.08 1844.1 721.08C1846.17 721.08 1847.81 721.688 1849.03 722.904C1850.27 724.12 1850.88 725.752 1850.88 727.8V730.904ZM1840.13 728.728H1848.07V727.8C1848.07 726.392 1847.73 725.325 1847.04 724.6C1846.38 723.853 1845.4 723.48 1844.1 723.48C1842.8 723.48 1841.81 723.853 1841.12 724.6C1840.46 725.325 1840.13 726.392 1840.13 727.8V728.728ZM1864.22 721.08C1865.99 721.08 1867.39 721.635 1868.44 722.744C1869.48 723.832 1870.01 725.304 1870.01 727.16V739H1867.13V727.48C1867.13 726.243 1866.79 725.272 1866.1 724.568C1865.44 723.864 1864.54 723.512 1863.38 723.512C1862.17 723.512 1861.22 723.896 1860.54 724.664C1859.85 725.411 1859.51 726.456 1859.51 727.8V739H1856.63V721.4H1859.51V724.76H1859.54C1859.69 723.587 1860.17 722.68 1860.98 722.04C1861.79 721.4 1862.87 721.08 1864.22 721.08ZM1882.6 739.32C1880.47 739.32 1878.78 738.723 1877.55 737.528C1876.31 736.333 1875.69 734.691 1875.69 732.6V727.8C1875.69 725.709 1876.31 724.067 1877.55 722.872C1878.78 721.677 1880.47 721.08 1882.6 721.08C1884.63 721.08 1886.26 721.624 1887.5 722.712C1888.74 723.8 1889.39 725.283 1889.45 727.16H1886.57C1886.51 726.051 1886.12 725.187 1885.42 724.568C1884.74 723.949 1883.8 723.64 1882.6 723.64C1881.34 723.64 1880.35 724.003 1879.63 724.728C1878.92 725.453 1878.57 726.467 1878.57 727.768V732.6C1878.57 733.923 1878.92 734.947 1879.63 735.672C1880.33 736.397 1881.32 736.76 1882.6 736.76C1883.8 736.76 1884.74 736.451 1885.42 735.832C1886.12 735.213 1886.51 734.349 1886.57 733.24H1889.45C1889.39 735.117 1888.74 736.6 1887.5 737.688C1886.26 738.776 1884.63 739.32 1882.6 739.32ZM1901.66 739.32C1899.57 739.32 1897.92 738.723 1896.7 737.528C1895.49 736.333 1894.88 734.691 1894.88 732.6V727.8C1894.88 725.709 1895.49 724.067 1896.7 722.872C1897.92 721.677 1899.57 721.08 1901.66 721.08C1903.75 721.08 1905.41 721.677 1906.62 722.872C1907.84 724.067 1908.45 725.699 1908.45 727.768V732.6C1908.45 734.691 1907.84 736.333 1906.62 737.528C1905.41 738.723 1903.75 739.32 1901.66 739.32ZM1901.66 736.76C1902.92 736.76 1903.88 736.408 1904.54 735.704C1905.23 734.979 1905.57 733.944 1905.57 732.6V727.8C1905.57 726.456 1905.23 725.432 1904.54 724.728C1903.88 724.003 1902.92 723.64 1901.66 723.64C1900.4 723.64 1899.43 724.003 1898.75 724.728C1898.09 725.432 1897.76 726.456 1897.76 727.8V732.6C1897.76 733.944 1898.09 734.979 1898.75 735.704C1899.43 736.408 1900.4 736.76 1901.66 736.76ZM1924.63 715.64H1927.51V739H1924.63V735.64H1924.59C1924.44 736.792 1923.94 737.699 1923.09 738.36C1922.24 739 1921.15 739.32 1919.83 739.32C1918.06 739.32 1916.65 738.733 1915.6 737.56C1914.58 736.387 1914.07 734.797 1914.07 732.792V727.64C1914.07 725.613 1914.58 724.013 1915.6 722.84C1916.65 721.667 1918.06 721.08 1919.83 721.08C1921.13 721.08 1922.2 721.411 1923.06 722.072C1923.91 722.733 1924.42 723.629 1924.59 724.76H1924.69L1924.63 720.76V715.64ZM1924.63 727.8C1924.63 726.477 1924.28 725.443 1923.6 724.696C1922.92 723.949 1921.98 723.576 1920.79 723.576C1919.57 723.576 1918.62 723.949 1917.94 724.696C1917.28 725.421 1916.95 726.456 1916.95 727.8V732.6C1916.95 733.944 1917.28 734.989 1917.94 735.736C1918.62 736.461 1919.57 736.824 1920.79 736.824C1921.98 736.824 1922.92 736.451 1923.6 735.704C1924.28 734.957 1924.63 733.923 1924.63 732.6V727.8ZM1946.82 730.904H1936.07V732.6C1936.07 734.008 1936.4 735.075 1937.06 735.8C1937.74 736.525 1938.74 736.888 1940.04 736.888C1942.28 736.888 1943.56 736.099 1943.88 734.52H1946.76C1946.57 735.992 1945.86 737.165 1944.65 738.04C1943.43 738.893 1941.89 739.32 1940.04 739.32C1937.97 739.32 1936.31 738.712 1935.08 737.496C1933.86 736.28 1933.25 734.648 1933.25 732.6V727.8C1933.25 725.752 1933.86 724.12 1935.08 722.904C1936.31 721.688 1937.97 721.08 1940.04 721.08C1942.11 721.08 1943.75 721.688 1944.97 722.904C1946.2 724.12 1946.82 725.752 1946.82 727.8V730.904ZM1936.07 728.728H1944.01V727.8C1944.01 726.392 1943.66 725.325 1942.98 724.6C1942.32 723.853 1941.34 723.48 1940.04 723.48C1938.74 723.48 1937.74 723.853 1937.06 724.6C1936.4 725.325 1936.07 726.392 1936.07 727.8V728.728ZM1960.63 721.08C1962.49 721.08 1963.96 721.667 1965.05 722.84C1966.16 723.992 1966.71 725.56 1966.71 727.544V728.6H1963.83V727.8C1963.83 726.435 1963.49 725.379 1962.81 724.632C1962.15 723.885 1961.2 723.512 1959.96 723.512C1958.75 723.512 1957.79 723.896 1957.08 724.664C1956.4 725.411 1956.06 726.456 1956.06 727.8V739H1953.18V721.4H1955.99V724.536C1956.57 722.232 1958.12 721.08 1960.63 721.08Z" fill="black"/>
<path d="M503.828 456.828C505.391 455.266 505.391 452.734 503.828 451.172L478.373 425.716C476.81 424.154 474.278 424.154 472.716 425.716C471.154 427.278 471.154 429.81 472.716 431.373L495.343 454L472.716 476.627C471.154 478.19 471.154 480.722 472.716 482.284C474.278 483.846 476.81 483.846 478.373 482.284L503.828 456.828ZM423 458H501V450H423V458Z" fill="#C81540"/>
<path d="M1027.83 456.828C1029.39 455.266 1029.39 452.734 1027.83 451.172L1002.37 425.716C1000.81 424.154 998.278 424.154 996.716 425.716C995.154 427.278 995.154 429.81 996.716 431.373L1019.34 454L996.716 476.627C995.154 478.19 995.154 480.722 996.716 482.284C998.278 483.846 1000.81 483.846 1002.37 482.284L1027.83 456.828ZM947 458H1025V450H947V458Z" fill="#C81540"/>
<path d="M1592.83 447.828C1594.39 446.266 1594.39 443.734 1592.83 442.172L1567.37 416.716C1565.81 415.154 1563.28 415.154 1561.72 416.716C1560.15 418.278 1560.15 420.81 1561.72 422.373L1584.34 445L1561.72 467.627C1560.15 469.19 1560.15 471.722 1561.72 473.284C1563.28 474.846 1565.81 474.846 1567.37 473.284L1592.83 447.828ZM1512 449H1590V441H1512V449Z" fill="#C81540"/>
<path d="M1593.58 158.211C1592.59 156.235 1590.19 155.434 1588.21 156.422L1556.01 172.522C1554.04 173.51 1553.23 175.913 1554.22 177.889C1555.21 179.864 1557.61 180.665 1559.59 179.677L1588.21 165.367L1602.52 193.988C1603.51 195.964 1605.91 196.765 1607.89 195.777C1609.86 194.789 1610.67 192.386 1609.68 190.411L1593.58 158.211ZM1515.79 395.265L1593.79 161.265L1586.21 158.735L1508.21 392.735L1515.79 395.265Z" fill="#C81540"/>
<path d="M1588.19 733.584C1590.17 734.572 1592.57 733.772 1593.56 731.796L1609.66 699.598C1610.65 697.622 1609.85 695.219 1607.87 694.231C1605.9 693.243 1603.49 694.044 1602.5 696.02L1588.19 724.64L1559.57 710.327C1557.6 709.339 1555.19 710.139 1554.2 712.115C1553.22 714.091 1554.02 716.494 1555.99 717.482L1588.19 733.584ZM1508.21 497.265L1586.18 731.271L1593.77 728.742L1515.79 494.735L1508.21 497.265Z" fill="#C81540"/>
</svg>
